<?xml version="1.0" standalone="no"?>
<!DOCTYPE svg PUBLIC "-//W3C//DTD SVG 1.1//EN" "http://www.w3.org/Graphics/SVG/1.1/DTD/svg11.dtd" >
<svg xmlns="http://www.w3.org/2000/svg">
<metadata>
This is a custom SVG webfont generated by Font Squirrel.
Copyright   : Copyright c 2009 YOFonts All rights reserved Version 403 Designed by Yamaoka Yasuhiro 19902009
Designer    : Yamaoka Yasuhiro
Foundry     : YOFonts
Foundry URL : wwwyoworkscom
</metadata>
<defs>
<font id="MidietSansItalicBold" horiz-adv-x="983" >
<font-face units-per-em="2048" ascent="1638" descent="-410" />
<missing-glyph horiz-adv-x="628" />
<glyph unicode=" "  horiz-adv-x="628" />
<glyph unicode="&#x09;" horiz-adv-x="628" />
<glyph unicode="&#xa0;" horiz-adv-x="628" />
<glyph unicode="!" horiz-adv-x="628" d="M90 137q12 68 68.5 116t124 48t107.5 -48q31 -37 31 -85q0 -15 -3 -31q-12 -70 -68.5 -117t-124 -47t-107.5 47q-31 36 -31 86q0 15 3 31zM166 410l143 819h275l-146 -819h-272z" />
<glyph unicode="&#x22;" horiz-adv-x="1038" d="M184 752q127 166 191 319q-49 16 -75 59q-19 33 -19 73q0 13 2 26q12 68 68.5 116t124 48t107.5 -48q31 -37 30 -85q0 -15 -3 -31q-39 -221 -233 -477h-193zM594 752q127 166 190 319q-49 16 -74 59q-19 33 -20 73q0 13 2 26q12 68 68.5 116t124 48t107.5 -48 q31 -37 31 -85q0 -15 -3 -31q-39 -221 -234 -477h-192z" />
<glyph unicode="#" d="M33 436l39 219h159l88 191h-100l39 219h160l74 164h190l-74 -164h148l73 164h191l-74 -164h101l-39 -219h-160l-88 -191h100l-39 -219h-159l-74 -164h-191l74 164h-145l-76 -164h-191l74 164h-100zM424 655h145l86 191h-145z" />
<glyph unicode="$" horiz-adv-x="1114" d="M10 39l43 246q219 -66 412 -66q121 0 192.5 43t79.5 92q2 11 2 21q0 42 -34 66q-43 30 -150 30q-258 0 -364 92q-80 70 -80 194q0 39 8 83q23 135 143.5 248.5t310.5 152.5l48 260h231l-43 -246q156 -8 344 -65l-45 -246q-215 66 -410 66q-121 0 -193.5 -43t-80.5 -93 q-2 -11 -2 -20q0 -42 36 -67q44 -30 148 -29q258 0 365 -92q81 -70 81 -195q0 -38 -8 -82q-25 -135 -145.5 -248.5t-312.5 -152.5l-47 -260h-232l43 247q-162 9 -340 64z" />
<glyph unicode="%" horiz-adv-x="1366" d="M-16 0l1200 1229h246l-1201 -1229h-245zM154 961q23 133 121 213.5t245.5 80.5t215.5 -80q52 -61 52 -152q0 -30 -6 -62q-23 -135 -121 -216t-245.5 -81t-215.5 80q-52 61 -52 153q0 31 6 64zM358 961q-3 -18 -2 -34q0 -88 90 -87q109 0 132 121q3 18 2 32q0 86 -91 86 q-108 1 -131 -118zM631 268q23 133 122 215t244 82q147 0 216 -81q52 -61 52 -152q0 -30 -5 -64q-23 -133 -121.5 -214t-246 -81t-215.5 81q-52 61 -52 152q0 29 6 62zM838 268q-4 -20 -4 -37q0 -82 92 -81q106 0 129 118q4 20 4 38q0 83 -92 83q-111 0 -129 -121z" />
<glyph unicode="&#x26;" horiz-adv-x="1187" d="M55 332q37 195 207 286q-93 75 -93 204q0 35 7 75q29 162 170 260t379 98q190 0 346 -53l-41 -233q-160 55 -346 55q-197 0 -225 -147q-3 -20 -4 -37q0 -108 135 -109h614l-41 -233h-149l-80 -453q-219 -72 -456.5 -72t-343.5 99q-84 78 -84 197q0 30 5 63zM346 352 q-3 -16 -3 -31q0 -48 31 -77q40 -39 144 -39q80 0 166 12l49 281h-184q-174 -1 -203 -146z" />
<glyph unicode="'" horiz-adv-x="628" d="M184 752q127 166 191 319q-49 16 -75 59q-19 33 -19 73q0 13 2 26q12 68 68.5 116t124 48t107.5 -48q31 -37 30 -85q0 -15 -3 -31q-39 -221 -233 -477h-193z" />
<glyph unicode="(" horiz-adv-x="886" d="M83 81q-4 47 -4 98q0 136 30 298q47 268 151.5 478t234.5 331t264 182.5t259 61.5l-39 -219q-53 0 -116.5 -23.5t-140.5 -85t-145.5 -151.5t-129 -239.5t-93.5 -334.5q-24 -164 -23 -291q0 -60 5 -111q16 -161 80.5 -256t132 -134t137.5 -39l-39 -219q-98 0 -190 37.5 t-174 116.5t-133.5 203t-66.5 297z" />
<glyph unicode=")" horiz-adv-x="886" d="M-131 -573l39 219q53 0 116.5 23.5t140.5 84t145.5 151.5t129 239.5t92.5 332.5q28 147 29 266q0 36 -3 69q-11 142 -45 237.5t-91 154t-112.5 83t-108.5 24.5l39 219q127 0 238.5 -59.5t200.5 -186.5t116 -327q10 -76 10 -164q0 -142 -27 -316q-37 -215 -113.5 -395 t-171 -299t-204 -201t-215 -118.5t-205.5 -36.5z" />
<glyph unicode="*" d="M66 756l413 131l-366 133l159 213l263 -272l-11 405h246l-152 -405l359 272l86 -213l-416 -133l369 -131l-160 -213l-264 272l10 -405h-246l154 405l-360 -272z" />
<glyph unicode="+" d="M102 436l39 219h273l47 273h219l-47 -273h272l-39 -219h-272l-49 -272h-217l47 272h-273z" />
<glyph unicode="," horiz-adv-x="628" d="M-8 -342q129 168 188 322q-49 14 -74 58q-18 33 -18 72q0 13 2 27q12 68 68.5 116t124 48t107.5 -48q31 -37 31 -85q0 -15 -3 -31q-39 -221 -236 -479h-190z" />
<glyph unicode="-" d="M102 436l39 219h764l-39 -219h-764z" />
<glyph unicode="." horiz-adv-x="628" d="M90 137q12 68 68.5 116t124 48t107.5 -48q31 -37 31 -85q0 -15 -3 -31q-12 -70 -68.5 -117t-124 -47t-107.5 47q-31 36 -31 86q0 15 3 31z" />
<glyph unicode="/" horiz-adv-x="1079" d="M-358 -547l1386 2048h258l-1386 -2048h-258z" />
<glyph unicode="0" horiz-adv-x="1091" d="M92 614q53 299 206 470t386.5 171t324.5 -171q58 -109 58 -271q0 -91 -18 -199q-53 -299 -206 -470t-386.5 -171t-324.5 171q-58 109 -58 272q0 90 18 198zM368 309q28 -104 130 -104t164.5 101.5t99.5 307.5q23 117 23 202q0 60 -12 104q-28 104 -130 104t-164.5 -101.5 t-99.5 -308.5q-23 -117 -23 -201q1 -61 12 -104z" />
<glyph unicode="1" horiz-adv-x="1091" d="M180 645l47 273q260 82 545 313l139 -2l-217 -1229h-272l143 821q-197 -119 -385 -176z" />
<glyph unicode="2" horiz-adv-x="1091" d="M-2 0l20 117q29 162 93.5 270.5t140.5 153.5t162 77.5t156.5 49t124 59.5t65.5 117q4 24 4 45q0 60 -35 92q-47 43 -162 43q-147 0 -315 -47l41 231q168 47 315 47q238 0 355 -110q91 -86 91 -222q0 -38 -7 -79q-16 -96 -63.5 -168t-110 -114t-135 -71.5t-143.5 -52 t-130 -47t-101 -64.5t-53 -96h656l-41 -231h-928z" />
<glyph unicode="3" horiz-adv-x="1091" d="M4 -117l41 234q158 -49 326 -49q135 0 201.5 43t82.5 139q5 25 5 47q0 53 -28 86q-40 47 -122 47h-258l41 232h258q82 0 138 47t71 135q4 24 4 44q0 61 -37 93q-49 43 -174 43q-164 0 -328 -47l41 231q164 47 328 47q248 0 368 -109q93 -85 92 -220q0 -39 -7 -82 q-14 -94 -84 -179t-156 -118q76 -33 114 -119q26 -60 26 -123q0 -27 -5 -55q-35 -193 -195.5 -303.5t-416.5 -110.5q-174 0 -326 47z" />
<glyph unicode="4" horiz-adv-x="1091" d="M37 219l29 166q90 520 636 981h322q-279 -219 -444.5 -432t-227.5 -483h230l61 342h258l-59 -342h178l-41 -232h-178l-39 -219h-258l37 219h-504z" />
<glyph unicode="5" horiz-adv-x="1091" d="M4 -117l41 234q158 -49 326 -49q252 0 291 208q4 26 4 49q0 66 -35 106q-47 54 -158 54q-158 0 -317 -49l141 793h790l-40 -232h-519l-49 -284q20 4 35 4q233 0 351 -121q91 -93 91 -233q0 -41 -8 -87q-37 -201 -200.5 -320.5t-417.5 -119.5q-174 0 -326 47z" />
<glyph unicode="6" horiz-adv-x="1091" d="M66 385q90 520 636 981h322q-395 -311 -557 -606q84 39 190 39q178 0 274 -115q71 -85 71 -209q0 -43 -9 -90q-33 -186 -183.5 -299t-353 -113t-313.5 113q-85 87 -85 218q1 38 8 81zM352 385q-4 -24 -4 -44q0 -56 29 -90q39 -46 121 -46t138 46t71 134q5 26 4 48 q0 54 -28 87q-40 47 -122 47t-138.5 -47t-70.5 -135z" />
<glyph unicode="7" horiz-adv-x="1091" d="M174 997l41 232h954l-22 -137q-516 -528 -641 -1229h-273q53 295 204 605t337 529h-600z" />
<glyph unicode="8" horiz-adv-x="1091" d="M51 383q37 215 242 330q-109 88 -110 224q0 35 7 73q29 172 173.5 277.5t343.5 105.5q201 0 307 -106q84 -83 84 -207q0 -33 -6 -70q-35 -186 -209 -297q132 -95 131 -254q0 -36 -6 -76q-33 -182 -186.5 -296t-364.5 -114t-325 114q-88 88 -88 218q0 37 7 78zM342 399 q-5 -25 -5 -47q0 -57 31 -95q42 -52 130 -52t148.5 52t76.5 142q5 25 5 48q0 57 -31 95q-42 52 -130 52t-148.5 -52.5t-76.5 -142.5zM473 993q-3 -19 -3 -36q0 -51 27 -86q36 -46 111 -46q74 0 127 47.5t66 120.5q3 19 3 37q0 51 -27 85q-36 46 -111 46q-74 0 -127.5 -47 t-65.5 -121z" />
<glyph unicode="9" horiz-adv-x="1091" d="M117 -137q395 311 557 606q-88 -39 -191 -39q-178 0 -274 115q-72 86 -72 210q0 42 8 89q33 186 184.5 298.5t354.5 112.5t313 -112q85 -87 86 -218q0 -39 -8 -81q-94 -522 -637 -981h-321zM432 844q-4 -23 -4 -44q0 -57 30 -91q40 -47 122 -47q80 0 136 47t72 135 q4 24 4 44q0 56 -28 90q-39 46 -121 46t-138.5 -46t-72.5 -134z" />
<glyph unicode=":" horiz-adv-x="628" d="M90 137q12 68 68.5 116t124 48t107.5 -48q31 -37 31 -85q0 -15 -3 -31q-12 -70 -68.5 -117t-124 -47t-107.5 47q-31 36 -31 86q0 15 3 31zM211 819q12 68 68.5 116t124 48t107.5 -48q31 -37 31 -85q0 -15 -3 -31q-12 -68 -68.5 -116t-124.5 -48q-70 0 -108 48 q-30 37 -30 85q0 15 3 31z" />
<glyph unicode=";" horiz-adv-x="628" d="M-8 -342q129 168 188 322q-49 14 -74 58q-18 33 -18 72q0 13 2 27q12 68 68.5 116t124 48t107.5 -48q31 -37 31 -85q0 -15 -3 -31q-39 -221 -236 -479h-190zM211 819q12 68 68.5 116t124 48t107.5 -48q31 -37 31 -85q0 -15 -3 -31q-12 -68 -68.5 -116t-124.5 -48 q-70 0 -108 48q-30 37 -30 85q0 15 3 31z" />
<glyph unicode="&#x3c;" d="M147 477l498 479h309l-497 -479l327 -477h-309z" />
<glyph unicode="=" d="M74 272l39 220h764l-39 -220h-764zM131 600l39 219h764l-39 -219h-764z" />
<glyph unicode="&#x3e;" d="M29 0l497 477l-327 479h309l328 -479l-498 -477h-309z" />
<glyph unicode="?" horiz-adv-x="956" d="M197 975l41 231q197 49 329 49q211 0 325 -95q92 -77 92 -190q0 -26 -5 -55q-16 -90 -61.5 -152.5t-100.5 -95.5l-110 -65q-55 -31 -97.5 -78t-54.5 -114h-274q16 94 62 164.5t100.5 110.5t107.5 74t93 71.5t48 84.5l2 16q0 37 -35 62q-41 31 -133 31q-126 0 -329 -49z M207 137q10 68 67.5 116t125 48t106.5 -48q31 -38 31 -88q0 -13 -2 -28q-12 -70 -68.5 -117t-124.5 -47q-70 0 -109 47q-30 36 -29 85q0 15 3 32z" />
<glyph unicode="@" horiz-adv-x="1746" d="M78 614q63 350 329.5 564.5t626.5 214.5q356 0 555 -190q159 -152 160 -359q0 -51 -10 -107q-37 -213 -165 -333.5t-345 -120.5q-117 0 -170 49q-102 -49 -211 -49q-164 0 -255 91q-71 71 -71 176q0 31 6 64q27 150 150 241t287 91q178 0 356 -59l-59 -334q-4 -23 14 -35 t57 -12q57 0 97 51t63 180q7 42 7 80q0 142 -101 237q-129 120 -402 120q-274 0 -450 -145.5t-223 -414.5q-12 -72 -12 -134q0 -173 90 -279q124 -145 397 -146q168 0 340 54l-39 -218q-170 -55 -340 -55q-360 0 -552 215q-145 163 -145 402q0 76 15 161zM786 614 q-3 -14 -2 -26q0 -37 23 -63q31 -34 88 -33.5t113 18.5l36 209q-49 18 -106 18t-100.5 -34t-51.5 -89z" />
<glyph unicode="A" horiz-adv-x="1230" d="M-139 0l706 1229h295l219 -993q8 -31 56 -31q43 0 100 20l-39 -225q-84 -27 -168 -27q-201 0 -229 148l-27 151h-457l-145 -272h-311zM449 518h280l-70 397z" />
<glyph unicode="B" horiz-adv-x="1146" d="M53 0l215 1229h492q209 0 307 -92q76 -71 76 -186q0 -33 -6 -70q-31 -164 -197 -267q108 -86 108 -210q0 -27 -6 -56q-29 -162 -159.5 -255t-337.5 -93h-492zM367 231h219q150 0 172 134q3 19 3 34q0 99 -130 99h-217zM455 731h217q154 0 174 133q3 19 3 35q0 99 -130 98 h-217z" />
<glyph unicode="C" horiz-adv-x="1114" d="M78 614q53 295 260 468t530 173q164 0 320 -53l-45 -246q-150 53 -318 54q-377 0 -446 -396q-11 -62 -11 -114q0 -281 316 -281q168 0 340 53l-43 -245q-174 -53 -340 -54q-324 0 -469 173q-108 128 -108 323q1 68 14 145z" />
<glyph unicode="D" horiz-adv-x="1325" d="M53 0l215 1229h486q311 0 451 -162q103 -119 103 -306q0 -69 -14 -147q-53 -293 -249.5 -453.5t-507.5 -160.5h-484zM367 231h211q180 0 280 92.5t135 290.5q12 68 12 123q0 107 -44 168q-68 92 -248 92h-211z" />
<glyph unicode="E" horiz-adv-x="1091" d="M53 0l215 1229h848l-41 -232h-567l-47 -266h567l-41 -233h-567l-47 -267h567l-41 -231h-846z" />
<glyph unicode="F" horiz-adv-x="1038" d="M53 0l215 1229h848l-41 -232h-567l-47 -266h567l-41 -233h-567l-88 -498h-279z" />
<glyph unicode="G" horiz-adv-x="1222" d="M78 614q53 297 266 469t551 172q195 0 346 -53l-43 -246q-154 53 -346 54q-205 0 -321.5 -97.5t-151.5 -298.5q-10 -60 -10 -110q0 -121 58 -189q83 -96 286 -96q49 0 75 2l56 311h280l-90 -505q-174 -53 -364 -54q-338 0 -491 172q-114 129 -114 328q0 66 13 141z" />
<glyph unicode="H" horiz-adv-x="1378" d="M53 0l215 1229h275l-84 -477h532l84 477h273l-168 -955q-2 -12 -3 -21q0 -48 58 -48q39 0 100 20l-41 -225q-84 -27 -168 -27q-232 0 -232 198q0 34 7 75l41 231h-532l-84 -477h-273z" />
<glyph unicode="I" horiz-adv-x="559" d="M53 0l215 1229h287l-215 -1229h-287z" />
<glyph unicode="J" horiz-adv-x="614" d="M-317 -547l41 234q59 -29 159 -29q76 0 126 37t63 100l252 1434h286l-252 -1434q-31 -168 -170 -268t-346 -100q-89 -1 -159 26z" />
<glyph unicode="K" horiz-adv-x="1136" d="M53 0l215 1229h275l-113 -635l551 635h334l-567 -615l196 -346q37 -63 103 -63q41 0 98 20l-39 -225q-84 -27 -168 -27q-158 0 -209 93l-178 333l-193 -206l-32 -193h-273z" />
<glyph unicode="L" horiz-adv-x="1009" d="M53 0l215 1229h287l-174 -998h559l-41 -231h-846z" />
<glyph unicode="M" horiz-adv-x="1523" d="M-2 0l332 1229h258l221 -410l365 410h258l-78 -942q-1 -13 -1 -24q0 -27 7 -40q10 -18 43 -18q39 0 100 20l-41 -225q-84 -27 -168 -27q-232 0 -231 196q0 19 2 40l61 616l-307 -327h-135l-190 327l-209 -825h-287z" />
<glyph unicode="N" horiz-adv-x="1351" d="M53 0l215 1229h275l397 -764l135 764h273l-218 -1229h-272l-397 764l-135 -764h-273z" />
<glyph unicode="O" horiz-adv-x="1351" d="M78 614q51 287 248.5 464t486.5 177t423 -177q98 -130 98 -318q0 -69 -13 -146q-49 -287 -246.5 -464t-486.5 -177q-291 0 -426 178q-98 128 -98 314q0 70 14 149zM379 614q-13 -72 -13 -130q0 -265 265 -265q322 0 389 395q13 72 13 131q0 264 -263 265 q-319 -1 -391 -396z" />
<glyph unicode="P" horiz-adv-x="1064" d="M53 0l215 1229h465q217 0 322 -107q80 -81 79 -210q0 -41 -8 -87q-33 -190 -175 -295.5t-359 -105.5h-193l-73 -424h-273zM440 655h193q176 0 207 170q5 25 4 47q0 125 -152 125h-190z" />
<glyph unicode="Q" horiz-adv-x="1351" d="M78 614q51 287 248.5 464t486.5 177t423 -177q98 -130 98 -318q0 -69 -13 -146q-37 -209 -153.5 -363.5t-295.5 -225.5l177 -310q33 -57 129 -57q98 0 168 29l-41 -234q-80 -27 -168 -26q-258 0 -344 161l-205 385q-289 0 -424 178q-99 130 -99 318q0 69 13 145zM379 614 q-13 -72 -13 -130q0 -265 265 -265q322 0 389 395q13 72 13 131q0 264 -263 265q-319 -1 -391 -396z" />
<glyph unicode="R" horiz-adv-x="1146" d="M53 0l215 1229h465q217 0 322 -107q80 -81 79 -210q0 -41 -8 -87q-47 -268 -292 -360l110 -197q37 -63 103 -63q39 0 100 20l-41 -225q-84 -27 -168 -27q-158 0 -209 93l-190 358h-140l-73 -424h-273zM440 655h193q176 0 207 170q5 25 4 47q0 125 -152 125h-190z" />
<glyph unicode="S" horiz-adv-x="1114" d="M10 39l43 246q219 -66 412 -66q121 0 192.5 43t79.5 92q2 11 2 21q0 42 -34 66q-43 30 -150 30q-258 0 -364 92q-80 70 -80 194q0 39 8 83q29 166 195.5 290.5t426.5 124.5q193 0 412 -65l-45 -246q-215 66 -410 66q-121 0 -193.5 -43t-80.5 -93q-2 -11 -2 -20 q0 -42 36 -67q44 -30 148 -29q258 0 365 -92q81 -70 81 -195q0 -38 -8 -82q-31 -166 -196.5 -291t-425.5 -125q-193 0 -412 66z" />
<glyph unicode="T" horiz-adv-x="1079" d="M119 997l41 232h1024l-41 -232h-369l-176 -997h-287l176 997h-368z" />
<glyph unicode="U" horiz-adv-x="1325" d="M123 477l133 752h272l-133 -752q-6 -36 -6 -67q0 -78 40 -125q56 -66 187 -66q264 0 312 258l133 752h272l-131 -752q-43 -231 -208 -367.5t-421 -136.5t-373 137q-87 101 -88 254q0 53 11 113z" />
<glyph unicode="V" horiz-adv-x="1163" d="M78 1229h311l170 -881l479 881h312l-705 -1229h-295z" />
<glyph unicode="W" horiz-adv-x="2148" d="M78 1229h311l170 -881l504 881h287l194 -881l481 881h312l-707 -1229h-295l-192 868l-498 -868h-295z" />
<glyph unicode="X" horiz-adv-x="1136" d="M-152 0l566 614l-351 615h334l219 -410l365 410h334l-567 -615l196 -346q37 -63 103 -63q41 0 98 20l-39 -225q-84 -27 -168 -27q-158 0 -209 93l-184 344l-365 -410h-332z" />
<glyph unicode="Y" horiz-adv-x="1032" d="M23 1229h333l219 -410l365 410h334l-604 -658l-101 -571h-274l100 571z" />
<glyph unicode="Z" horiz-adv-x="1183" d="M-16 0l24 137l770 846h-620l43 246h1046l-22 -137l-772 -846h622l-43 -246h-1048z" />
<glyph unicode="[" d="M80 -547l360 2048h656l-41 -231h-396l-280 -1583h395l-39 -234h-655z" />
<glyph unicode="\" horiz-adv-x="1079" d="M154 1501h258l663 -2048h-258z" />
<glyph unicode="]" d="M-113 -547l41 234h396l280 1583h-395l41 231h655l-362 -2048h-656z" />
<glyph unicode="^" horiz-adv-x="546" d="M53 1092l250 409h301l105 -409h-226l-57 254l-147 -254h-226z" />
<glyph unicode="_" d="M25 0l38 219h764l-36 -219h-766z" />
<glyph unicode="`" horiz-adv-x="546" d="M168 1501h246l104 -409h-246z" />
<glyph unicode="a" horiz-adv-x="1161" d="M68 477q41 227 196.5 366.5t384.5 139.5q199 0 426 -61l-114 -648q-6 -39 7 -54t48 -15q43 0 100 20l-39 -225q-84 -27 -170 -27q-127 0 -184 60q-131 -59 -252 -60q-227 0 -335 139q-79 102 -79 251q1 54 11 114zM354 477q-8 -47 -8 -86q0 -71 27 -117q41 -70 139 -69 q86 0 170 33l86 493q-76 20 -160 21q-98 0 -163.5 -70t-90.5 -205z" />
<glyph unicode="b" horiz-adv-x="1132" d="M57 35l260 1466h273l-96 -545q94 27 170 27q229 0 335 -139q77 -101 77 -247q0 -56 -11 -120q-41 -227 -196.5 -365.5t-383.5 -138.5q-201 1 -428 62zM365 223q82 -18 159 -18q98 0 165 69.5t89 202.5q8 49 8 89q0 71 -25 116q-40 70 -138 70q-90 0 -168 -21z" />
<glyph unicode="c" horiz-adv-x="942" d="M68 477q41 233 205.5 369.5t416.5 136.5q127 0 252 -43l-41 -233q-125 45 -252 45q-246 0 -295 -275q-8 -44 -7 -80q0 -192 206 -192q125 0 266 43l-41 -232q-141 -43 -266 -43q-252 0 -369 136q-86 100 -86 254q0 53 11 114z" />
<glyph unicode="d" horiz-adv-x="1161" d="M68 477q41 227 196.5 366.5t384.5 139.5q68 0 160 -18l96 536h273l-217 -1227q-6 -39 7 -54t48 -15q43 0 100 20l-39 -225q-84 -27 -170 -27q-127 0 -184 60q-131 -59 -252 -60q-227 0 -335 139q-79 102 -79 251q1 54 11 114zM354 477q-8 -47 -8 -86q0 -71 27 -117 q41 -70 139 -69q86 0 170 33l86 493q-76 20 -160 21q-98 0 -163.5 -70t-90.5 -205z" />
<glyph unicode="e" horiz-adv-x="1064" d="M68 477q41 229 199.5 367.5t402.5 138.5q182 0 283 -88q83 -72 83 -172q0 -22 -4 -45q-25 -139 -147.5 -221t-321.5 -82q-121 0 -229 20q2 -190 246 -190q129 0 297 51l-41 -231q-150 -51 -297 -52q-262 0 -387 135q-94 101 -95 259q1 52 11 110zM383 612q96 -18 217 -18 q150 0 166 84q1 6 1 12q0 33 -30 53q-35 25 -106 25q-174 0 -248 -156z" />
<glyph unicode="f" horiz-adv-x="860" d="M-289 -547l39 234q63 -29 160 -29q76 0 127 37t61 100l164 928h-205l41 233h205l35 205q31 168 169 268.5t335 100.5q82 0 157 -29l-41 -231q-61 27 -157 26q-76 0 -127 -36.5t-62 -98.5l-37 -205h328l-41 -233h-327l-164 -928q-29 -168 -167 -268t-335 -100 q-88 -1 -158 26z" />
<glyph unicode="g" horiz-adv-x="1009" d="M-51 -205q23 135 120 228.5t242 126.5q-25 20 -18 55q6 37 37 55q-133 33 -198 126q-47 67 -47 157q0 34 7 71q29 168 167 268.5t335 100.5q203 0 426 -61l-53 -308q-23 -125 -110 -216t-214 -128q-78 -23 -78 -73q0 -39 56 -58q115 -39 169 -129q38 -64 38 -145 q0 -34 -7 -70q-29 -168 -167 -268t-334.5 -100t-299.5 100q-79 77 -78 194q0 35 7 74zM221 -205q-2 -14 -2 -26q0 -45 29 -74q37 -37 112.5 -37t127 37t61.5 100q2 14 2 27q0 45 -29 74q-37 37 -112.5 36.5t-127 -37.5t-61.5 -100zM365 614q-2 -14 -3 -25q0 -46 30 -75 q38 -37 114 -37t126 37t60 100l23 117q-76 20 -162 21q-76 0 -126 -37.5t-62 -100.5z" />
<glyph unicode="h" horiz-adv-x="1173" d="M53 0l264 1501h273l-96 -545q94 27 170 27q197 0 298 -100q79 -78 79 -198q0 -34 -7 -71l-59 -340q-2 -12 -3 -21q0 -48 58 -48q39 0 100 20l-40 -225q-84 -27 -168 -27q-232 0 -233 198q0 34 7 75l66 368q2 14 2 27q0 45 -29 74q-37 37 -112 37q-90 0 -168 -21 l-129 -731h-273z" />
<glyph unicode="i" horiz-adv-x="573" d="M96 246l125 710h273l-121 -682q-1 -9 -2 -17q0 -52 57 -52q43 0 100 20l-39 -225q-84 -27 -167 -27q-233 0 -234 194q0 36 8 79zM268 1296q10 63 61.5 107.5t114.5 44.5q61 0 98 -44q28 -34 28 -80q0 -13 -3 -28q-10 -61 -62 -105t-114 -44q-63 0 -99 44q-27 33 -27 75 q0 14 3 30z" />
<glyph unicode="j" horiz-adv-x="573" d="M-180 -547l39 225q53 -20 92 -20q68 0 80 70l217 1228h272l-221 -1257q-47 -272 -322 -272q-85 -1 -157 26zM295 1296q10 63 62.5 107.5t113.5 44.5q63 0 99 -44q28 -34 28 -80q0 -13 -2 -28q-12 -61 -63.5 -105t-114.5 -44q-61 0 -97 44q-28 34 -28 79q0 12 2 26z" />
<glyph unicode="k" horiz-adv-x="1083" d="M53 0l264 1501h273l-168 -956l420 411h321l-497 -479l137 -196q29 -45 58.5 -60.5t86.5 -15.5q39 0 101 20l-41 -225q-84 -27 -168 -27q-150 0 -203 82l-160 242l-119 -115l-32 -182h-273z" />
<glyph unicode="l" horiz-adv-x="573" d="M96 246l221 1255h273l-217 -1227q-1 -9 -2 -17q0 -52 57 -52q43 0 100 20l-39 -225q-84 -27 -167 -27q-233 0 -234 194q0 36 8 79z" />
<glyph unicode="m" horiz-adv-x="1775" d="M53 0l162 922q246 61 449 61q193 0 297 -100q129 100 303 100q197 0 299 -100q79 -77 78 -195q0 -35 -7 -74l-59 -340q-6 -39 7 -54t48 -15q43 0 101 20l-39 -225q-84 -27 -170 -27q-232 0 -233 198q0 34 7 75l66 368q2 14 2 27q0 45 -29 74q-37 37 -112.5 37t-127 -37 t-61.5 -101l-108 -614h-273l109 614q2 14 2 27q0 45 -29 74q-37 37 -112 37q-90 0 -168 -21l-129 -731h-273z" />
<glyph unicode="n" horiz-adv-x="1173" d="M53 0l162 922q246 61 449 61q197 0 298 -100q79 -78 79 -198q0 -34 -7 -71l-59 -340q-2 -12 -3 -21q0 -48 58 -48q39 0 100 20l-40 -225q-84 -27 -168 -27q-232 0 -233 198q0 34 7 75l66 368q2 14 2 27q0 45 -29 74q-37 37 -112 37q-90 0 -168 -21l-129 -731h-273z" />
<glyph unicode="o" horiz-adv-x="1120" d="M68 477q41 227 196.5 366.5t385 139.5t335.5 -139q77 -101 77 -247q0 -56 -11 -120q-39 -225 -195 -364.5t-385 -139.5q-227 0 -335 139q-79 102 -79 251q1 54 11 114zM354 477q-8 -47 -8 -86q0 -71 27 -117q41 -70 139 -69.5t163.5 70t88.5 202.5q9 50 9 91 q0 69 -25 113q-41 71 -139.5 71t-164 -70t-90.5 -205z" />
<glyph unicode="p" horiz-adv-x="1132" d="M-43 -547l258 1469q246 61 449 61q229 0 335 -139q77 -101 77 -247q0 -56 -11 -120q-41 -227 -196.5 -365.5t-383.5 -138.5q-72 0 -159 27l-97 -547h-272zM365 223q82 -18 159 -18q98 0 165 69.5t89 202.5q8 49 8 89q0 71 -25 116q-40 70 -138 70q-90 0 -168 -21z" />
<glyph unicode="q" horiz-adv-x="1132" d="M68 477q41 227 196.5 366.5t384.5 139.5q199 0 426 -61l-211 -1194q-2 -11 -2 -20q0 -50 58 -50q43 0 100 20l-39 -225q-84 -27 -170 -26q-232 0 -232 198q0 34 7 74l53 301q-94 -27 -168 -27q-227 0 -335 139q-79 102 -79 251q1 54 11 114zM354 477q-8 -47 -8 -86 q0 -71 27 -117q41 -70 139 -69q82 0 166 18l90 508q-76 20 -160 21q-98 0 -163.5 -70t-90.5 -205z" />
<glyph unicode="r" horiz-adv-x="866" d="M53 0l162 922q246 61 449 61q125 0 249 -43l-41 -233q-121 45 -249 45q-90 0 -168 -21l-129 -731h-273z" />
<glyph unicode="s" horiz-adv-x="915" d="M2 25l41 231q176 -51 326 -51q154 0 166 76q4 31 -19.5 49t-81.5 18q-188 0 -274 77q-66 59 -66 162q0 32 6 68q23 133 154 230.5t334 97.5q147 0 325 -51l-41 -234q-172 53 -325 54q-152 0 -168 -76q-1 -6 -1 -11q0 -57 103 -57q188 0 275 -77q66 -59 65 -162 q0 -32 -6 -68q-23 -133 -155 -230.5t-332 -97.5q-152 1 -326 52z" />
<glyph unicode="t" horiz-adv-x="901" d="M57 723l41 233h205l45 252l279 41l-52 -293h328l-41 -233h-327l-68 -381q-2 -14 -2 -26q0 -45 29 -74q37 -37 112 -37q98 0 170 26l-41 -231q-80 -27 -168 -27q-197 0 -299 101q-80 78 -80 198q0 34 7 70l67 381h-205z" />
<glyph unicode="u" horiz-adv-x="1161" d="M98 342l109 614h272l-106 -614q-3 -16 -3 -29q0 -43 28 -71q38 -37 114 -37q86 0 170 33l125 718h274l-120 -682q-6 -39 7 -54t48 -15q43 0 100 20l-39 -225q-84 -27 -170 -27q-127 0 -184 60q-131 -59 -252 -60q-197 0 -299 101q-80 78 -80 198q0 33 6 70z" />
<glyph unicode="v" horiz-adv-x="1024" d="M84 956h297l108 -608l322 608h297l-553 -956h-254z" />
<glyph unicode="w" horiz-adv-x="1779" d="M84 956h297l108 -608l351 608h268l137 -608l322 608h297l-553 -956h-254l-142 623l-360 -623h-254z" />
<glyph unicode="x" horiz-adv-x="1050" d="M-84 0l442 477l-274 479h322l147 -284l248 284h321l-442 -479l111 -196q25 -43 52 -59.5t72 -16.5q39 0 101 20l-41 -225q-84 -27 -168 -27q-160 0 -213 103l-109 209l-247 -285h-322z" />
<glyph unicode="y" horiz-adv-x="1024" d="M-66 -547l363 610l-213 893h301l109 -585l313 585h301l-889 -1503h-285z" />
<glyph unicode="z" d="M-16 0l24 137l520 574h-419l43 245h847l-24 -137l-522 -573h421l-43 -246h-847z" />
<glyph unicode="{" horiz-adv-x="833" d="M88 354l43 246h68q90 0 143 49t59 144l37 462q10 137 92 206t215 69q88 0 160 -29l-41 -225q-41 20 -92 20q-76 0 -80 -69l-30 -434q-8 -119 -77 -202t-177 -114q98 -31 137 -112q21 -44 21 -101q0 -47 -15 -102l-123 -434q-4 -14 -4 -25q0 -45 59 -45q39 0 101 20 l-41 -225q-84 -27 -168 -26q-135 0 -193 67q-34 40 -34 105q0 44 16 100l127 463q11 40 11 72q0 43 -20 71q-36 49 -126 49h-68z" />
<glyph unicode="|" horiz-adv-x="655" d="M25 -547l360 2048h246l-361 -2048h-245z" />
<glyph unicode="}" horiz-adv-x="833" d="M-72 -547l41 225q49 -20 92 -20q74 0 80 70l31 434q8 121 76.5 202.5t175.5 112.5q-96 31 -136 114q-21 44 -22 99q0 48 17 103l123 434q4 14 3 25q0 45 -59 44q-53 0 -100 -20l41 225q76 29 168 29q133 0 190 -69q35 -42 35 -109q0 -43 -14 -97l-129 -462 q-11 -40 -11 -72q0 -44 21 -72q37 -49 127 -49h67l-43 -246h-69q-88 0 -141.5 -49t-61.5 -143l-35 -463q-10 -137 -92 -204.5t-215 -67.5q-84 -1 -160 26z" />
<glyph unicode="~" d="M121 547l39 217q133 82 233 82q74 0 131.5 -27.5t99.5 -54.5t76 -27q94 0 234 82l-39 -219q-139 -82 -231 -82q-96 0 -184.5 55.5t-125.5 55.5q-90 0 -233 -82z" />
<glyph unicode="&#xa0;" />
<glyph unicode="&#xa1;" horiz-adv-x="628" d="M94 0l144 819h272l-143 -819h-273zM258 1092q12 70 68.5 116.5t124.5 46.5q70 0 108 -47q30 -36 30 -84q0 -15 -3 -32q-12 -68 -68.5 -116t-124 -48t-107.5 48q-31 37 -31 85q0 15 3 31z" />
<glyph unicode="&#xa2;" horiz-adv-x="942" d="M92 614q35 193 154 321t303 167l47 264h231l-43 -250q111 -14 181 -41l-39 -231q-129 43 -252 43q-246 0 -295 -273q-8 -45 -8 -82q0 -190 207 -190q125 0 266 43l-41 -231q-78 -27 -195 -41l-45 -250h-231l45 264q-172 39 -246 167q-50 87 -50 204q0 54 11 116z" />
<glyph unicode="&#xa3;" horiz-adv-x="1091" d="M-2 0l39 225q53 -20 94 -20q68 0 78 69l39 218h-164l41 231h164l28 164q31 168 168.5 268t333.5 100q158 0 307 -41l-41 -231q-150 41 -307 41q-76 0 -126 -37t-60 -100l-29 -164h369l-41 -231h-369l-45 -246q76 -41 170 -41q150 0 350 49l-41 -231q-197 -49 -348 -50 q-133 0 -246 60q-78 -59 -204 -60q-88 0 -160 27z" />
<glyph unicode="&#xa5;" horiz-adv-x="1032" d="M23 1229h333l219 -410l365 410h334l-543 -567h252l-41 -232h-297l-76 -430h-274l76 430h-297l41 232h252z" />
<glyph unicode="&#xa6;" horiz-adv-x="655" d="M25 -547l168 957h245l-168 -957h-245zM217 547l168 954h246l-168 -954h-246z" />
<glyph unicode="&#xa7;" horiz-adv-x="1222" d="M-6 -362l43 245q225 -68 412 -67q121 0 191.5 44t80.5 93q2 11 2 21q0 42 -35 66q-43 30 -149 30q-258 0 -364 92q-80 70 -80 194q0 39 7 82q14 82 71.5 159t137.5 108q-121 64 -120 205q0 32 6 67q31 166 196.5 291t425.5 125q197 0 412 -66l-43 -246q-219 66 -412 66 q-121 0 -192.5 -43t-79.5 -92q-2 -11 -2 -21q0 -42 35 -66q43 -30 149 -30q258 0 364 -92q80 -70 80 -194q0 -39 -8 -83q-14 -82 -70.5 -158.5t-138.5 -107.5q121 -64 121 -205q0 -32 -6 -67q-31 -168 -196.5 -293t-425.5 -125q-186 0 -412 68zM408 471q-2 -11 -3 -21 q0 -38 31 -63q39 -31 129 -31q111 0 176.5 43t75.5 93q2 12 2 21q0 40 -31 65q-39 31 -129 30q-111 -2 -177 -45t-74 -92z" />
<glyph unicode="&#xa8;" horiz-adv-x="546" d="M111 1296q10 55 56 95.5t103.5 40.5t89.5 -40q25 -30 25 -70q0 -12 -2 -26q-8 -57 -56 -97t-104 -40q-57 0 -90 40q-25 30 -25 71q1 12 3 26zM451 1296q10 55 57 95.5t104.5 40.5t89.5 -40q25 -30 25 -70q0 -12 -2 -26q-10 -57 -57 -97t-105 -40q-55 0 -88 40 q-26 32 -26 75q0 11 2 22z" />
<glyph unicode="&#xa9;" horiz-adv-x="1611" d="M78 614q55 311 314 531.5t570.5 220.5t491.5 -220q139 -170 139 -394q0 -66 -12 -138q-55 -311 -314 -531t-570.5 -220t-491.5 220q-139 170 -139 394q0 66 12 137zM250 614q-10 -56 -10 -108q0 -171 107 -301q140 -170 380 -170q242 0 441.5 170t240.5 409q10 57 10 110 q0 171 -106 300q-139 170 -381 170q-240 0 -440.5 -170t-241.5 -410zM420 614q35 197 173 312.5t353 115.5q113 0 213 -36l-29 -164q-111 37 -212 37q-252 0 -297 -265q-7 -41 -7 -75q0 -189 209 -189q102 0 228 37l-29 -164q-115 -37 -227 -37q-215 0 -313 116 q-72 85 -71 214q0 46 9 98z" />
<glyph unicode="&#xaa;" horiz-adv-x="956" d="M135 852q31 182 155 292.5t308 110.5q166 0 342 -49l-90 -504q-1 -7 -1 -13q0 -42 46 -42q35 0 80 17l-35 -195q-57 -20 -135 -20q-100 0 -148 47q-109 -47 -200 -47q-184 0 -270 110q-61 80 -61 197q0 45 9 96zM238 137q12 68 68 116t124 48t108 -48q31 -37 30 -85 q0 -15 -3 -31q-12 -70 -68.5 -117t-124 -47t-107.5 47q-31 36 -30 86q0 15 3 31zM385 852q-6 -34 -6 -62q0 -124 113 -124q55 0 116 22l60 336q-53 14 -111 14q-137 0 -172 -186z" />
<glyph unicode="&#xab;" d="M82 477l289 479h272l-289 -479l121 -477h-272zM457 477l288 479h275l-289 -479l121 -477h-274z" />
<glyph unicode="&#xad;" d="M102 436l39 219h764l-39 -219h-764z" />
<glyph unicode="&#xae;" horiz-adv-x="1611" d="M78 614q55 311 314 531.5t570.5 220.5t491.5 -220q139 -170 139 -394q0 -66 -12 -138q-55 -311 -314 -531t-570.5 -220t-491.5 220q-139 170 -139 394q0 66 12 137zM250 614q-10 -56 -10 -108q0 -171 107 -301q140 -170 380 -170q242 0 441.5 170t240.5 409q10 57 10 110 q0 171 -106 300q-139 170 -381 170q-240 0 -440.5 -170t-241.5 -410zM461 205l145 819h309q145 0 215 -71q53 -53 53 -139q0 -28 -5 -58q-31 -178 -195 -242l176 -309h-223l-152 282h-90l-51 -282h-182zM721 641h127q119 0 139 115q3 15 3 28q0 84 -101 84h-129z" />
<glyph unicode="&#xaf;" d="M217 1092l39 219h764l-37 -219h-766z" />
<glyph unicode="&#xb0;" horiz-adv-x="927" d="M184 901q27 147 149 250.5t269 103.5q145 0 232 -103q66 -79 65 -184q0 -32 -6 -67q-25 -147 -146.5 -250.5t-269 -103.5t-233.5 103q-66 79 -66 184q0 32 6 67zM416 901q-3 -13 -3 -25q0 -36 23 -62q31 -36 82 -36t92 36t52 87q3 13 2 25q0 35 -22 62q-30 36 -81 36 t-94 -36t-51 -87z" />
<glyph unicode="&#xb1;" d="M25 0l38 219h764l-36 -219h-766zM121 539l37 219h274l47 272h219l-49 -272h275l-39 -219h-273l-49 -273h-219l49 273h-272z" />
<glyph unicode="&#xb2;" horiz-adv-x="1091" d="M-2 0l20 117q29 162 93.5 270.5t140.5 153.5t162 77.5t156.5 49t124 59.5t65.5 117q4 24 4 45q0 60 -35 92q-47 43 -162 43q-147 0 -315 -47l41 231q168 47 315 47q238 0 355 -110q91 -86 91 -222q0 -38 -7 -79q-16 -96 -63.5 -168t-110 -114t-135 -71.5t-143.5 -52 t-130 -47t-101 -64.5t-53 -96h656l-41 -231h-928z" />
<glyph unicode="&#xb3;" horiz-adv-x="1091" d="M4 -117l41 234q158 -49 326 -49q135 0 201.5 43t82.5 139q5 25 5 47q0 53 -28 86q-40 47 -122 47h-258l41 232h258q82 0 138 47t71 135q4 24 4 44q0 61 -37 93q-49 43 -174 43q-164 0 -328 -47l41 231q164 47 328 47q248 0 368 -109q93 -85 92 -220q0 -39 -7 -82 q-14 -94 -84 -179t-156 -118q76 -33 114 -119q26 -60 26 -123q0 -27 -5 -55q-35 -193 -195.5 -303.5t-416.5 -110.5q-174 0 -326 47z" />
<glyph unicode="&#xb4;" horiz-adv-x="546" d="M246 1092l250 409h245l-249 -409h-246z" />
<glyph unicode="&#xb5;" horiz-adv-x="1161" d="M-57 -547l264 1503h272l-106 -614q-3 -16 -3 -29q0 -43 28 -71q38 -37 114 -37q86 0 170 33l125 718h274l-120 -682q-6 -39 7 -54t48 -15q43 0 100 20l-39 -225q-84 -27 -170 -27q-133 0 -184 60q-123 -59 -231 -60q-119 0 -179 41l-98 -561h-272z" />
<glyph unicode="&#x3bc;" horiz-adv-x="1161" d="M-57 -547l264 1503h272l-106 -614q-3 -16 -3 -29q0 -43 28 -71q38 -37 114 -37q86 0 170 33l125 718h274l-120 -682q-6 -39 7 -54t48 -15q43 0 100 20l-39 -225q-84 -27 -170 -27q-133 0 -184 60q-123 -59 -231 -60q-119 0 -179 41l-98 -561h-272z" />
<glyph unicode="&#xb6;" horiz-adv-x="1167" d="M-16 -233l39 219q158 -47 282 -62l109 621q-152 49 -216 175q-44 85 -44 194q0 52 10 110q41 229 204.5 367.5t411.5 138.5q184 0 426 -62l-223 -1263q-43 -233 -197.5 -369.5t-390.5 -136.5q-186 0 -411 68zM438 1024q-8 -46 -8 -85q0 -198 211 -198q98 0 188 27l91 512 q-80 27 -181 27q-252 0 -301 -283zM561 -57q135 63 168 262l62 342q-43 -12 -127 -25z" />
<glyph unicode="&#xb7;" horiz-adv-x="628" d="M135 547q14 78 80 134t145 56q78 0 125 -56q36 -43 36 -99q0 -17 -3 -35q-16 -80 -81.5 -136.5t-143.5 -56.5q-80 0 -126 57q-35 43 -35 99q0 18 3 37z" />
<glyph unicode="&#xb8;" d="M123 -410l250 410h245l-249 -410h-246z" />
<glyph unicode="&#xb9;" horiz-adv-x="1091" d="M180 645l47 273q260 82 545 313l139 -2l-217 -1229h-272l143 821q-197 -119 -385 -176z" />
<glyph unicode="&#xba;" horiz-adv-x="923" d="M135 852q31 182 155 292.5t308 110.5q182 0 268 -110q63 -81 64 -202q0 -43 -8 -91q-33 -182 -158 -292.5t-307 -110.5q-184 0 -270 110q-61 80 -61 197q0 45 9 96zM238 137q12 68 68 116t124 48t108 -48q31 -37 30 -85q0 -15 -3 -31q-12 -70 -68.5 -117t-124 -47 t-107.5 47q-31 36 -30 86q0 15 3 31zM389 852q-7 -37 -7 -66q0 -120 114 -120q137 0 172 186q6 34 5 62q0 124 -112 124q-141 0 -172 -186z" />
<glyph unicode="&#xbb;" d="M-37 0l289 477l-121 479h275l120 -479l-288 -477h-275zM340 0l289 477l-121 479h272l121 -479l-289 -477h-272z" />
<glyph unicode="&#xbf;" horiz-adv-x="956" d="M27 313q14 90 60 152.5t100.5 96.5t109.5 64.5t97 78t55 114.5h274q-20 -115 -85 -196.5t-131.5 -118.5t-124.5 -86t-69 -105q-1 -8 -1 -15q0 -37 33 -62q40 -31 132 -31q129 0 330 49l-41 -231q-197 -49 -330 -50q-211 0 -324 96q-91 76 -91 186q0 28 6 58zM471 1092 q10 68 67.5 115.5t125 47.5t106.5 -47q31 -37 31 -88q0 -14 -2 -28q-12 -68 -68.5 -116t-126.5 -48q-68 0 -106 48q-30 37 -30 84q0 16 3 32z" />
<glyph unicode="&#xc0;" horiz-adv-x="1230" d="M-139 0l706 1229h295l219 -993q8 -31 56 -31q43 0 100 20l-39 -225q-84 -27 -168 -27q-201 0 -229 148l-27 151h-457l-145 -272h-311zM449 518h280l-70 397zM494 1776h245l107 -410h-246z" />
<glyph unicode="&#xc1;" horiz-adv-x="1230" d="M-139 0l706 1229h295l219 -993q8 -31 56 -31q43 0 100 20l-39 -225q-84 -27 -168 -27q-201 0 -229 148l-27 151h-457l-145 -272h-311zM449 518h280l-70 397zM631 1366l250 410h245l-249 -410h-246z" />
<glyph unicode="&#xc2;" horiz-adv-x="1230" d="M-139 0l706 1229h295l219 -993q8 -31 56 -31q43 0 100 20l-39 -225q-84 -27 -168 -27q-201 0 -229 148l-27 151h-457l-145 -272h-311zM408 1366l249 410h301l105 -410h-225l-58 252l-147 -252h-225zM449 518h280l-70 397z" />
<glyph unicode="&#xc3;" horiz-adv-x="1230" d="M-143 0l706 1229h295l219 -993q8 -31 56 -31q43 0 100 20l-39 -225q-84 -27 -168 -27q-201 0 -229 148l-27 151h-457l-145 -272h-311zM348 1366l6 33q23 125 104 195.5t204 70.5q51 0 100 -22.5t76 -55.5q25 -31 49 -31q16 0 30.5 14.5t18.5 33.5l6 34h219l-6 -34 q-23 -125 -103.5 -196t-203.5 -71q-51 0 -100.5 23.5t-75.5 56.5q-27 31 -49 31q-16 0 -30.5 -14.5t-19.5 -34.5l-6 -33h-219zM444 518h281l-70 397z" />
<glyph unicode="&#xc4;" horiz-adv-x="1230" d="M-139 0l706 1229h295l219 -993q8 -31 56 -31q43 0 100 20l-39 -225q-84 -27 -168 -27q-201 0 -229 148l-27 151h-457l-145 -272h-311zM446 1432q10 57 57.5 97t102.5 40q57 0 90 -40q25 -30 25 -71q0 -13 -2 -26q-10 -55 -56.5 -95.5t-103.5 -40.5t-90 40q-25 30 -25 70 q0 13 2 26zM449 518h280l-70 397zM788 1432q8 57 55.5 97t105 40t89.5 -40q25 -30 25 -71q0 -13 -2 -26q-8 -55 -56.5 -95.5t-103.5 -40.5q-57 0 -90 40q-25 30 -25 70q0 13 2 26z" />
<glyph unicode="&#xc5;" horiz-adv-x="1230" d="M-139 0l696 1212q-68 63 -67 155q0 22 4 46q18 104 105 178t191.5 74t165.5 -74q47 -57 48 -131q0 -22 -5 -47q-23 -125 -135 -201l217 -976q8 -31 56 -31q43 0 100 20l-39 -225q-84 -27 -168 -27q-201 0 -229 148l-27 151h-457l-145 -272h-311zM449 518h280l-70 397z M666 1413l-2 -16q0 -24 15 -42q19 -24 52 -24q35 0 63.5 23.5t34.5 58.5q1 6 1 12q0 27 -16 46q-19 24 -52 24q-35 0 -63.5 -23.5t-32.5 -58.5z" />
<glyph unicode="&#xc6;" horiz-adv-x="1570" d="M-139 0l706 1229h1026l-41 -232h-610l19 -266h544l-41 -233h-485l18 -267h420l-41 -231h-667l-17 272h-375l-145 -272h-311zM449 518h231l-21 397z" />
<glyph unicode="&#xc7;" horiz-adv-x="1114" d="M78 614q53 295 260 468t530 173q164 0 320 -53l-45 -246q-150 53 -318 54q-377 0 -446 -396q-11 -62 -11 -114q0 -281 316 -281q168 0 340 53l-43 -245q-135 -41 -289 -52l-233 -385h-246l244 400q-227 49 -325 213q-67 114 -67 267q0 68 13 144z" />
<glyph unicode="&#xc8;" horiz-adv-x="1091" d="M53 0l215 1229h848l-41 -232h-567l-47 -266h567l-41 -233h-567l-47 -267h567l-41 -231h-846zM487 1776h246l105 -410h-246z" />
<glyph unicode="&#xc9;" horiz-adv-x="1091" d="M53 0l215 1229h848l-41 -232h-567l-47 -266h567l-41 -233h-567l-47 -267h567l-41 -231h-846zM588 1366l248 410h245l-247 -410h-246z" />
<glyph unicode="&#xca;" horiz-adv-x="1091" d="M53 0l215 1229h848l-41 -232h-567l-47 -266h567l-41 -233h-567l-47 -267h567l-41 -231h-846zM393 1366l250 410h301l105 -410h-226l-57 252l-148 -252h-225z" />
<glyph unicode="&#xcb;" horiz-adv-x="1091" d="M53 0l215 1229h848l-41 -232h-567l-47 -266h567l-41 -233h-567l-47 -267h567l-41 -231h-846zM420 1432q10 57 57 97t105 40q55 0 88 -40q26 -32 26 -75q0 -11 -2 -22q-10 -55 -57 -95.5t-104.5 -40.5t-90.5 40q-25 30 -25 70q1 13 3 26zM762 1432q8 57 55 97t104.5 40 t90.5 -40q25 -30 25 -71q0 -13 -3 -26q-10 -55 -56 -95.5t-103.5 -40.5t-90.5 40q-25 30 -25 70q1 13 3 26z" />
<glyph unicode="&#xcc;" horiz-adv-x="559" d="M53 0l215 1229h287l-215 -1229h-287zM215 1776h246l104 -410h-246z" />
<glyph unicode="&#xcd;" horiz-adv-x="559" d="M53 0l215 1229h287l-215 -1229h-287zM293 1366l250 410h245l-249 -410h-246z" />
<glyph unicode="&#xce;" horiz-adv-x="559" d="M53 0l215 1229h287l-215 -1229h-287zM113 1366l249 410h302l104 -410h-225l-58 252l-147 -252h-225z" />
<glyph unicode="&#xcf;" horiz-adv-x="559" d="M53 0l215 1229h287l-215 -1229h-287zM139 1432q10 57 57.5 97t104.5 40q55 0 88 -40q26 -32 26 -75q0 -11 -1 -22q-10 -55 -57.5 -95.5t-104.5 -40.5t-90 40q-25 30 -25 70q0 13 2 26zM481 1432q8 57 55.5 97t104.5 40t90 -40q25 -30 25 -71q0 -13 -2 -26 q-10 -55 -56.5 -95.5t-103.5 -40.5t-90 40q-25 30 -25 70q0 13 2 26z" />
<glyph unicode="&#xd0;" horiz-adv-x="1325" d="M4 506l39 217h137l88 506h486q311 0 451 -162q103 -119 103 -306q0 -69 -14 -147q-53 -293 -249.5 -453.5t-507.5 -160.5h-484l88 506h-137zM367 231h211q180 0 280 92.5t135 290.5q12 68 12 123q0 107 -44 168q-68 92 -248 92h-211l-49 -274h110l-39 -217h-110z" />
<glyph unicode="&#xd1;" horiz-adv-x="1351" d="M53 0l215 1229h275l397 -764l135 764h273l-218 -1229h-272l-397 764l-135 -764h-273zM461 1366l4 33q23 125 103.5 195.5t203.5 70.5q51 0 101.5 -22.5t76.5 -55.5q20 -31 49 -31q16 0 32 14.5t18 33.5l6 34h217l-6 -34q-23 -123 -103 -195t-202 -72q-51 0 -100.5 23.5 t-78.5 56.5q-25 31 -49 31q-16 0 -30.5 -14.5t-18.5 -34.5l-6 -33h-217z" />
<glyph unicode="&#xd2;" horiz-adv-x="1351" d="M78 614q51 287 248.5 464t486.5 177t423 -177q98 -130 98 -318q0 -69 -13 -146q-49 -287 -246.5 -464t-486.5 -177q-291 0 -426 178q-98 128 -98 314q0 70 14 149zM379 614q-13 -72 -13 -130q0 -265 265 -265q322 0 389 395q13 72 13 131q0 264 -263 265 q-319 -1 -391 -396zM596 1776h246l104 -410h-246z" />
<glyph unicode="&#xd3;" horiz-adv-x="1351" d="M78 614q51 287 248.5 464t486.5 177t423 -177q98 -130 98 -318q0 -69 -13 -146q-49 -287 -246.5 -464t-486.5 -177q-291 0 -426 178q-98 128 -98 314q0 70 14 149zM379 614q-13 -72 -13 -130q0 -265 265 -265q322 0 389 395q13 72 13 131q0 264 -263 265 q-319 -1 -391 -396zM698 1366l250 410h246l-250 -410h-246z" />
<glyph unicode="&#xd4;" horiz-adv-x="1351" d="M78 614q51 287 248.5 464t486.5 177t423 -177q98 -130 98 -318q0 -69 -13 -146q-49 -287 -246.5 -464t-486.5 -177q-291 0 -426 178q-98 128 -98 314q0 70 14 149zM379 614q-13 -72 -13 -130q0 -265 265 -265q322 0 389 395q13 72 13 131q0 264 -263 265 q-319 -1 -391 -396zM492 1366l249 410h301l105 -410h-225l-58 252l-147 -252h-225z" />
<glyph unicode="&#xd5;" horiz-adv-x="1351" d="M78 614q51 287 248.5 464t486.5 177t423 -177q98 -130 98 -318q0 -69 -13 -146q-49 -287 -246.5 -464t-486.5 -177q-291 0 -426 178q-98 128 -98 314q0 70 14 149zM379 614q-13 -72 -13 -130q0 -265 265 -265q322 0 389 395q13 72 13 131q0 264 -263 265 q-319 -1 -391 -396zM453 1366l6 33q23 125 102.5 195.5t202.5 70.5q113 0 178 -78q25 -31 49 -31q16 0 30.5 14.5t18.5 33.5l7 34h219l-6 -34q-23 -125 -104 -196t-204 -71q-51 0 -100 23.5t-76 56.5q-27 31 -51 31q-16 0 -30.5 -14.5t-18.5 -34.5l-6 -33h-217z" />
<glyph unicode="&#xd6;" horiz-adv-x="1351" d="M78 614q51 287 248.5 464t486.5 177t423 -177q98 -130 98 -318q0 -69 -13 -146q-49 -287 -246.5 -464t-486.5 -177q-291 0 -426 178q-98 128 -98 314q0 70 14 149zM379 614q-13 -72 -13 -130q0 -265 265 -265q322 0 389 395q13 72 13 131q0 264 -263 265 q-319 -1 -391 -396zM537 1432q8 57 55 97t104.5 40t89.5 -40q25 -30 25 -71q0 -13 -2 -26q-10 -55 -56 -95.5t-103.5 -40.5t-90.5 40q-25 30 -25 70q1 13 3 26zM879 1432q8 57 55 97t104.5 40t89.5 -40q25 -30 25 -71q0 -13 -2 -26q-10 -55 -57 -95.5t-105 -40.5 q-55 0 -88 40q-25 30 -25 70q1 13 3 26z" />
<glyph unicode="&#xd7;" d="M82 319l266 228l-186 227l182 154l186 -228l269 228l127 -154l-269 -227l189 -228l-182 -155l-187 227l-268 -227z" />
<glyph unicode="&#xd8;" horiz-adv-x="1351" d="M78 614q51 287 248.5 464t486.5 177t423 -177q98 -130 98 -318q0 -69 -13 -146q-49 -287 -246.5 -464t-486.5 -177q-291 0 -426 178q-98 128 -98 314q0 70 14 149zM379 614q-12 -71 -12 -127q0 -81 24 -135l443 654q-20 4 -64 4q-319 -1 -391 -396zM561 223q45 -4 70 -4 q322 0 389 395q13 71 13 130q0 82 -25 139z" />
<glyph unicode="&#xd9;" horiz-adv-x="1325" d="M123 477l133 752h272l-133 -752q-6 -36 -6 -67q0 -78 40 -125q56 -66 187 -66q264 0 312 258l133 752h272l-131 -752q-43 -231 -208 -367.5t-421 -136.5t-373 137q-87 101 -88 254q0 53 11 113zM584 1776h245l105 -410h-246z" />
<glyph unicode="&#xda;" horiz-adv-x="1325" d="M123 477l133 752h272l-133 -752q-6 -36 -6 -67q0 -78 40 -125q56 -66 187 -66q264 0 312 258l133 752h272l-131 -752q-43 -231 -208 -367.5t-421 -136.5t-373 137q-87 101 -88 254q0 53 11 113zM676 1366l250 410h245l-249 -410h-246z" />
<glyph unicode="&#xdb;" horiz-adv-x="1325" d="M123 477l133 752h272l-133 -752q-6 -36 -6 -67q0 -78 40 -125q56 -66 187 -66q264 0 312 258l133 752h272l-131 -752q-43 -231 -208 -367.5t-421 -136.5t-373 137q-87 101 -88 254q0 53 11 113zM485 1366l250 410h299l107 -410h-226l-59 252l-145 -252h-226z" />
<glyph unicode="&#xdc;" horiz-adv-x="1325" d="M123 477l133 752h272l-133 -752q-6 -36 -6 -67q0 -78 40 -125q56 -66 187 -66q264 0 312 258l133 752h272l-131 -752q-43 -231 -208 -367.5t-421 -136.5t-373 137q-87 101 -88 254q0 53 11 113zM528 1432q8 57 55.5 97t104.5 40t90 -40q25 -30 25 -71q0 -13 -2 -26 q-8 -55 -56.5 -95.5t-103.5 -40.5q-57 0 -90 40q-25 30 -25 70q0 13 2 26zM868 1432q10 57 57.5 97t104.5 40t90 -40q25 -30 25 -71q0 -13 -2 -26q-10 -55 -57.5 -95.5t-104.5 -40.5t-90 40q-25 30 -25 70q0 13 2 26z" />
<glyph unicode="&#xdd;" horiz-adv-x="1032" d="M23 1229h333l219 -410l365 410h334l-604 -658l-101 -571h-274l100 571zM549 1366l248 410h245l-247 -410h-246z" />
<glyph unicode="&#xde;" horiz-adv-x="1064" d="M53 0l215 1229h275l-39 -211h192q217 0 322 -107q80 -81 79 -210q0 -41 -7 -87q-33 -190 -175.5 -296.5t-361.5 -106.5h-191l-36 -211h-273zM403 444h191q178 0 209 170q5 25 4 47q0 124 -152 123h-192z" />
<glyph unicode="&#xdf;" horiz-adv-x="1325" d="M-371 -547l39 234q63 -29 160 -29q70 0 123 35t65 102l240 1366q33 178 176 273.5t328 95.5q203 0 300 -111q71 -80 70 -209q0 -49 -10 -104q-20 -117 -74.5 -197t-107.5 -109.5t-98 -61t-52 -62.5q-1 -6 -1 -12q0 -29 27 -41q32 -14 77 -15q174 0 268 -71 q72 -55 72 -165q0 -33 -6 -71q-18 -109 -100.5 -185.5t-182.5 -109.5t-205 -33q-152 0 -325 52l41 231q170 -51 325 -51q152 0 166 76q6 39 -24.5 53t-75.5 14q-174 0 -270 71q-72 53 -72 161q0 35 8 75q12 70 47 118t78 77l86 57q43 29 79 78t48 121q6 33 6 61 q0 130 -135 129q-70 0 -123 -33.5t-66 -101.5l-241 -1366q-31 -178 -174.5 -273t-327.5 -95q-90 -1 -158 26z" />
<glyph unicode="&#xe0;" horiz-adv-x="1161" d="M68 477q41 227 196.5 366.5t384.5 139.5q199 0 426 -61l-114 -648q-6 -39 7 -54t48 -15q43 0 100 20l-39 -225q-84 -27 -170 -27q-127 0 -184 60q-131 -59 -252 -60q-227 0 -335 139q-79 102 -79 251q1 54 11 114zM354 477q-8 -47 -8 -86q0 -71 27 -117q41 -70 139 -69 q86 0 170 33l86 493q-76 20 -160 21q-98 0 -163.5 -70t-90.5 -205zM426 1501h246l104 -409h-246z" />
<glyph unicode="&#xe1;" horiz-adv-x="1161" d="M68 477q41 227 196.5 366.5t384.5 139.5q199 0 426 -61l-114 -648q-6 -39 7 -54t48 -15q43 0 100 20l-39 -225q-84 -27 -170 -27q-127 0 -184 60q-131 -59 -252 -60q-227 0 -335 139q-79 102 -79 251q1 54 11 114zM354 477q-8 -47 -8 -86q0 -71 27 -117q41 -70 139 -69 q86 0 170 33l86 493q-76 20 -160 21q-98 0 -163.5 -70t-90.5 -205zM530 1092l250 409h246l-250 -409h-246z" />
<glyph unicode="&#xe2;" horiz-adv-x="1161" d="M68 477q41 227 196.5 366.5t384.5 139.5q199 0 426 -61l-114 -648q-6 -39 7 -54t48 -15q43 0 100 20l-39 -225q-84 -27 -170 -27q-127 0 -184 60q-131 -59 -252 -60q-227 0 -335 139q-79 102 -79 251q1 54 11 114zM297 1092l250 409h301l104 -409h-225l-57 254l-148 -254 h-225zM354 477q-8 -47 -8 -86q0 -71 27 -117q41 -70 139 -69q86 0 170 33l86 493q-76 20 -160 21q-98 0 -163.5 -70t-90.5 -205z" />
<glyph unicode="&#xe3;" horiz-adv-x="1161" d="M68 477q41 227 196.5 366.5t384.5 139.5q199 0 426 -61l-114 -648q-6 -39 7 -54t48 -15q43 0 100 20l-39 -225q-84 -27 -170 -27q-127 0 -184 60q-131 -59 -252 -60q-227 0 -335 139q-79 102 -79 251q1 54 11 114zM268 1092l6 34q23 125 104 196t204 71q51 0 100 -23.5 t76 -56.5q25 -29 49 -29q16 0 31.5 14.5t19.5 32.5l4 35h219l-6 -35q-23 -125 -102.5 -195.5t-202.5 -70.5q-111 0 -178 80q-25 29 -49 29q-16 0 -30.5 -14.5t-18.5 -33.5l-7 -34h-219zM354 477q-8 -47 -8 -86q0 -71 27 -117q41 -70 139 -69q86 0 170 33l86 493 q-76 20 -160 21q-98 0 -163.5 -70t-90.5 -205z" />
<glyph unicode="&#xe4;" horiz-adv-x="1161" d="M68 477q41 227 196.5 366.5t384.5 139.5q199 0 426 -61l-114 -648q-6 -39 7 -54t48 -15q43 0 100 20l-39 -225q-84 -27 -170 -27q-127 0 -184 60q-131 -59 -252 -60q-227 0 -335 139q-79 102 -79 251q1 54 11 114zM354 477q-8 -47 -8 -86q0 -71 27 -117q41 -70 139 -69 q86 0 170 33l86 493q-76 20 -160 21q-98 0 -163.5 -70t-90.5 -205zM389 1296q10 55 56.5 95.5t103.5 40.5t90 -40q25 -30 25 -70q0 -12 -2 -26q-8 -57 -55.5 -97t-105 -40t-89.5 40q-25 30 -25 71q0 12 2 26zM729 1296q10 55 57.5 95.5t104.5 40.5t90 -40q25 -30 25 -70 q0 -12 -2 -26q-10 -57 -57.5 -97t-104.5 -40q-55 0 -88 40q-26 32 -27 75q0 11 2 22z" />
<glyph unicode="&#xe5;" horiz-adv-x="1161" d="M68 477q41 227 196.5 366.5t384.5 139.5q199 0 426 -61l-114 -648q-6 -39 7 -54t48 -15q43 0 100 20l-39 -225q-84 -27 -170 -27q-127 0 -184 60q-131 -59 -252 -60q-227 0 -335 139q-79 102 -79 251q1 54 11 114zM354 477q-8 -47 -8 -86q0 -71 27 -117q41 -70 139 -69 q86 0 170 33l86 493q-76 20 -160 21q-98 0 -163.5 -70t-90.5 -205zM446 1276q18 104 105.5 179t191.5 75q106 0 167 -75q46 -57 47 -132q0 -23 -5 -47q-18 -104 -105 -178t-191.5 -74t-166.5 74q-47 57 -47 131q0 23 4 47zM618 1276q-1 -8 -1 -15q0 -23 15 -42 q19 -25 54 -25q33 0 61.5 23.5t34.5 58.5q1 8 2 15q0 23 -15 42q-19 25 -54 25q-33 0 -62 -23.5t-35 -58.5z" />
<glyph unicode="&#xe6;" horiz-adv-x="1722" d="M68 477q41 227 196.5 366.5t384.5 139.5q221 0 424 -68q119 68 254 68q182 0 284 -88q83 -72 83 -172q0 -22 -4 -45q-25 -139 -148 -221t-323 -82q-119 0 -228 20q2 -190 246 -190q131 0 295 51l-41 -231q-150 -51 -295 -52q-223 0 -330 101q-195 -100 -395 -101 q-227 0 -335 139q-79 102 -79 251q1 54 11 114zM354 477q-8 -47 -8 -86q0 -71 27 -117q41 -70 139 -69q86 0 170 33l86 493q-76 20 -160 21q-98 0 -163.5 -70t-90.5 -205zM1049 614q94 -18 219 -18q78 0 117.5 24.5t46.5 59.5q2 7 1 14q0 29 -28 50q-35 26 -107 26 q-175 0 -249 -156z" />
<glyph unicode="&#xe7;" horiz-adv-x="942" d="M68 477q41 233 205.5 369.5t416.5 136.5q127 0 252 -43l-41 -233q-125 45 -252 45q-246 0 -295 -275q-8 -44 -7 -80q0 -192 206 -192q125 0 266 43l-41 -232q-82 -25 -172 -36l-237 -390h-246l242 398q-176 37 -254 166q-54 89 -54 209q0 54 11 114z" />
<glyph unicode="&#xe8;" horiz-adv-x="1064" d="M68 477q41 229 199.5 367.5t402.5 138.5q182 0 283 -88q83 -72 83 -172q0 -22 -4 -45q-25 -139 -147.5 -221t-321.5 -82q-121 0 -229 20q2 -190 246 -190q129 0 297 51l-41 -231q-150 -51 -297 -52q-262 0 -387 135q-94 101 -95 259q1 52 11 110zM383 612q96 -18 217 -18 q150 0 166 84q1 6 1 12q0 33 -30 53q-35 25 -106 25q-174 0 -248 -156zM414 1501h245l105 -409h-246z" />
<glyph unicode="&#xe9;" horiz-adv-x="1064" d="M68 477q41 229 199.5 367.5t402.5 138.5q182 0 283 -88q83 -72 83 -172q0 -22 -4 -45q-25 -139 -147.5 -221t-321.5 -82q-121 0 -229 20q2 -190 246 -190q129 0 297 51l-41 -231q-150 -51 -297 -52q-262 0 -387 135q-94 101 -95 259q1 52 11 110zM383 612q96 -18 217 -18 q150 0 166 84q1 6 1 12q0 33 -30 53q-35 25 -106 25q-174 0 -248 -156zM514 1092l250 409h246l-250 -409h-246z" />
<glyph unicode="&#xea;" horiz-adv-x="1064" d="M68 477q41 229 199.5 367.5t402.5 138.5q182 0 283 -88q83 -72 83 -172q0 -22 -4 -45q-25 -139 -147.5 -221t-321.5 -82q-121 0 -229 20q2 -190 246 -190q129 0 297 51l-41 -231q-150 -51 -297 -52q-262 0 -387 135q-94 101 -95 259q1 52 11 110zM309 1092l250 409h301 l105 -409h-226l-57 254l-147 -254h-226zM383 612q96 -18 217 -18q150 0 166 84q1 6 1 12q0 33 -30 53q-35 25 -106 25q-174 0 -248 -156z" />
<glyph unicode="&#xeb;" horiz-adv-x="1064" d="M68 477q41 229 199.5 367.5t402.5 138.5q182 0 283 -88q83 -72 83 -172q0 -22 -4 -45q-25 -139 -147.5 -221t-321.5 -82q-121 0 -229 20q2 -190 246 -190q129 0 297 51l-41 -231q-150 -51 -297 -52q-262 0 -387 135q-94 101 -95 259q1 52 11 110zM377 1296q10 55 57 95.5 t103 40.5q57 0 90 -40q25 -30 25 -70q0 -12 -3 -26q-8 -57 -55 -97t-104.5 -40t-90.5 40q-25 30 -25 71q1 12 3 26zM383 612q96 -18 217 -18q150 0 166 84q1 6 1 12q0 33 -30 53q-35 25 -106 25q-174 0 -248 -156zM719 1296q10 55 56 95.5t103.5 40.5t90.5 -40 q25 -30 25 -70q0 -12 -3 -26q-8 -57 -56 -97t-104 -40q-57 0 -90 40q-25 30 -25 71q1 12 3 26z" />
<glyph unicode="&#xec;" horiz-adv-x="573" d="M96 246l125 710h273l-121 -682q-6 -37 7 -53t50 -16q41 0 98 20l-39 -225q-84 -27 -167 -27q-233 0 -234 194q0 36 8 79zM168 1501h246l104 -409h-246z" />
<glyph unicode="&#xed;" horiz-adv-x="573" d="M96 246l125 710h273l-121 -682q-6 -37 7 -53t50 -16q41 0 98 20l-39 -225q-84 -27 -167 -27q-233 0 -234 194q0 36 8 79zM246 1092l250 409h245l-249 -409h-246z" />
<glyph unicode="&#xee;" horiz-adv-x="573" d="M53 1092l250 409h301l105 -409h-226l-57 254l-147 -254h-226zM96 246l125 710h273l-121 -682q-6 -37 7 -53t50 -16q41 0 98 20l-39 -225q-84 -27 -167 -27q-233 0 -234 194q0 36 8 79z" />
<glyph unicode="&#xef;" horiz-adv-x="573" d="M96 246l125 710h273l-121 -682q-6 -37 7 -53t50 -16q41 0 98 20l-39 -225q-84 -27 -167 -27q-233 0 -234 194q0 36 8 79zM111 1296q10 55 56 95.5t103.5 40.5t89.5 -40q25 -30 25 -70q0 -12 -2 -26q-8 -57 -56 -97t-104 -40q-57 0 -90 40q-25 30 -25 71q1 12 3 26z M451 1296q10 55 57 95.5t104.5 40.5t89.5 -40q25 -30 25 -70q0 -12 -2 -26q-10 -57 -57 -97t-105 -40q-55 0 -88 40q-26 32 -26 75q0 11 2 22z" />
<glyph unicode="&#xf0;" horiz-adv-x="1120" d="M68 477q41 227 187 366.5t357 139.5q100 0 176 -43q-18 86 -57 166h-334l39 219h160q-53 72 -150 176h322q72 -88 127 -176h305l-39 -219h-160q70 -192 71 -399q0 -113 -21 -230q-39 -225 -195 -364.5t-385 -139.5q-227 0 -335 139q-79 102 -79 251q1 54 11 114zM354 477 q-8 -47 -8 -86q0 -71 27 -117q41 -70 139 -69.5t163.5 70t88.5 202.5q9 50 9 91q0 69 -25 113q-41 71 -139.5 71t-164 -70t-90.5 -205z" />
<glyph unicode="&#xf1;" horiz-adv-x="1202" d="M80 0l162 922q246 61 448 61q197 0 299 -100q79 -77 79 -195q0 -35 -7 -74l-60 -340q-6 -39 7.5 -54t48.5 -15q43 0 100 20l-39 -225q-84 -27 -170 -27q-232 0 -232 198q0 34 7 75l65 368q2 14 3 27q0 45 -29 74q-37 37 -113 37q-86 0 -168 -21l-129 -731h-272zM293 1092 l6 34q23 125 102.5 196t202.5 71q111 0 178 -80q23 -29 49 -29q16 0 31 14.5t19 32.5l6 35h219l-6 -35q-23 -125 -104 -195.5t-203 -70.5q-51 0 -100.5 23.5t-76.5 56.5q-25 29 -51 29q-14 0 -29.5 -14.5t-19.5 -33.5l-6 -34h-217z" />
<glyph unicode="&#xf2;" horiz-adv-x="1120" d="M68 477q41 227 196.5 366.5t385 139.5t335.5 -139q77 -101 77 -247q0 -56 -11 -120q-39 -225 -195 -364.5t-385 -139.5q-227 0 -335 139q-79 102 -79 251q1 54 11 114zM354 477q-8 -47 -8 -86q0 -71 27 -117q41 -70 139 -69.5t163.5 70t88.5 202.5q9 50 9 91 q0 69 -25 113q-41 71 -139.5 71t-164 -70t-90.5 -205zM436 1501h246l106 -409h-245z" />
<glyph unicode="&#xf3;" horiz-adv-x="1120" d="M68 477q41 227 196.5 366.5t385 139.5t335.5 -139q77 -101 77 -247q0 -56 -11 -120q-39 -225 -195 -364.5t-385 -139.5q-227 0 -335 139q-79 102 -79 251q1 54 11 114zM354 477q-8 -47 -8 -86q0 -71 27 -117q41 -70 139 -69.5t163.5 70t88.5 202.5q9 50 9 91 q0 69 -25 113q-41 71 -139.5 71t-164 -70t-90.5 -205zM543 1092l250 409h245l-250 -409h-245z" />
<glyph unicode="&#xf4;" horiz-adv-x="1120" d="M68 477q41 227 196.5 366.5t385 139.5t335.5 -139q77 -101 77 -247q0 -56 -11 -120q-39 -225 -195 -364.5t-385 -139.5q-227 0 -335 139q-79 102 -79 251q1 54 11 114zM330 1092l250 409h301l104 -409h-225l-58 254l-147 -254h-225zM354 477q-8 -47 -8 -86q0 -71 27 -117 q41 -70 139 -69.5t163.5 70t88.5 202.5q9 50 9 91q0 69 -25 113q-41 71 -139.5 71t-164 -70t-90.5 -205z" />
<glyph unicode="&#xf5;" horiz-adv-x="1120" d="M68 477q41 227 196.5 366.5t385 139.5t335.5 -139q77 -101 77 -247q0 -56 -11 -120q-39 -225 -195 -364.5t-385 -139.5q-227 0 -335 139q-79 102 -79 251q1 54 11 114zM289 1092l6 34q23 125 102.5 196t202.5 71q111 0 178 -80q25 -29 49 -29q16 0 30.5 14.5t19.5 32.5 l6 35h219l-6 -35q-23 -125 -104 -195.5t-204 -70.5q-51 0 -100 23.5t-76 56.5q-25 29 -49 29q-16 0 -31.5 -14.5t-19.5 -33.5l-4 -34h-219zM354 477q-8 -47 -8 -86q0 -71 27 -117q41 -70 139 -69.5t163.5 70t88.5 202.5q9 50 9 91q0 69 -25 113q-41 71 -139.5 71t-164 -70 t-90.5 -205z" />
<glyph unicode="&#xf6;" horiz-adv-x="1120" d="M68 477q41 227 196.5 366.5t385 139.5t335.5 -139q77 -101 77 -247q0 -56 -11 -120q-39 -225 -195 -364.5t-385 -139.5q-227 0 -335 139q-79 102 -79 251q1 54 11 114zM354 477q-8 -47 -8 -86q0 -71 27 -117q41 -70 139 -69.5t163.5 70t88.5 202.5q9 50 9 91 q0 69 -25 113q-41 71 -139.5 71t-164 -70t-90.5 -205zM393 1296q10 55 56.5 95.5t103.5 40.5t90 -40q25 -30 25 -70q0 -12 -2 -26q-10 -57 -57.5 -97t-104.5 -40q-55 0 -88 40q-25 30 -25 71q0 12 2 26zM733 1296q10 55 57.5 95.5t104.5 40.5q55 0 88 -40q26 -32 26 -74 q0 -10 -1 -22q-10 -57 -57.5 -97t-105 -40t-89.5 40q-25 30 -25 71q0 12 2 26z" />
<glyph unicode="&#xf7;" d="M102 436l39 219h764l-39 -219h-764zM293 240q10 63 64.5 109t120 46t103.5 -46q29 -35 28 -79q0 -15 -3 -30q-10 -66 -64.5 -112t-120 -46t-103.5 46q-29 35 -28 81q0 15 3 31zM401 854q10 63 64.5 109.5t120.5 46.5q63 0 101 -45q30 -35 30 -84q0 -13 -2 -27 q-10 -66 -64.5 -112t-120 -46t-103.5 46q-29 35 -29 81q0 15 3 31z" />
<glyph unicode="&#xf8;" horiz-adv-x="1120" d="M68 477q41 227 196.5 366.5t385 139.5t335.5 -139q77 -101 77 -247q0 -56 -11 -120q-39 -225 -195 -364.5t-385 -139.5q-227 0 -335 139q-79 102 -79 251q1 54 11 114zM330 477q-8 -49 -9 -90q0 -51 13 -92l319 471q-25 4 -41 4q-111 0 -183 -75t-99 -218zM465 188 q14 -2 43 -2q111 0 183.5 75t99.5 216q8 49 7 90q0 54 -14 92z" />
<glyph unicode="&#xf9;" horiz-adv-x="1161" d="M98 342l109 614h272l-106 -614q-3 -16 -3 -29q0 -43 28 -71q38 -37 114 -37q86 0 170 33l125 718h274l-120 -682q-6 -39 7 -54t48 -15q43 0 100 20l-39 -225q-84 -27 -170 -27q-127 0 -184 60q-131 -59 -252 -60q-197 0 -299 101q-80 78 -80 198q0 33 6 70zM438 1501h246 l107 -409h-246z" />
<glyph unicode="&#xfa;" horiz-adv-x="1161" d="M98 342l109 614h272l-106 -614q-3 -16 -3 -29q0 -43 28 -71q38 -37 114 -37q86 0 170 33l125 718h274l-120 -682q-6 -39 7 -54t48 -15q43 0 100 20l-39 -225q-84 -27 -170 -27q-127 0 -184 60q-131 -59 -252 -60q-197 0 -299 101q-80 78 -80 198q0 33 6 70zM530 1092 l250 409h246l-250 -409h-246z" />
<glyph unicode="&#xfb;" horiz-adv-x="1161" d="M98 342l109 614h272l-106 -614q-3 -16 -3 -29q0 -43 28 -71q38 -37 114 -37q86 0 170 33l125 718h274l-120 -682q-6 -39 7 -54t48 -15q43 0 100 20l-39 -225q-84 -27 -170 -27q-127 0 -184 60q-131 -59 -252 -60q-197 0 -299 101q-80 78 -80 198q0 33 6 70zM330 1092 l250 409h301l104 -409h-225l-58 254l-147 -254h-225z" />
<glyph unicode="&#xfc;" horiz-adv-x="1161" d="M98 342l109 614h272l-106 -614q-3 -16 -3 -29q0 -43 28 -71q38 -37 114 -37q86 0 170 33l125 718h274l-120 -682q-6 -39 7 -54t48 -15q43 0 100 20l-39 -225q-84 -27 -170 -27q-127 0 -184 60q-131 -59 -252 -60q-197 0 -299 101q-80 78 -80 198q0 33 6 70zM399 1296 q10 55 56.5 95.5t103.5 40.5t90 -40q25 -30 25 -70q0 -12 -2 -26q-10 -57 -57.5 -97t-104.5 -40q-55 0 -88 40q-25 30 -25 71q0 12 2 26zM739 1296q10 55 57.5 95.5t104.5 40.5q55 0 89 -40q26 -31 26 -71q0 -12 -2 -25q-10 -57 -57.5 -97t-104.5 -40t-90 40q-25 30 -25 71 q0 12 2 26z" />
<glyph unicode="&#xfd;" horiz-adv-x="1024" d="M-66 -547l363 610l-213 893h301l109 -585l313 585h301l-889 -1503h-285zM489 1092l250 409h246l-250 -409h-246z" />
<glyph unicode="&#xfe;" horiz-adv-x="1132" d="M-43 -547l360 2048h273l-96 -545q94 27 170 27q229 0 335 -139q77 -101 77 -247q0 -56 -11 -120q-41 -227 -196.5 -365.5t-383.5 -138.5q-72 0 -159 27l-97 -547h-272zM365 223q82 -18 159 -18q98 0 165 69.5t89 202.5q8 49 8 89q0 71 -25 116q-40 70 -138 70 q-90 0 -168 -21z" />
<glyph unicode="&#xff;" horiz-adv-x="1024" d="M-66 -547l363 610l-213 893h301l109 -585l313 585h301l-889 -1503h-285zM346 1296q10 55 56.5 95.5t103.5 40.5t90 -40q25 -30 25 -70q0 -12 -3 -26q-8 -57 -56 -97t-103 -40q-57 0 -90 40q-25 30 -25 71q0 12 2 26zM686 1296q10 55 57.5 95.5t104.5 40.5t90 -40 q25 -30 25 -70q0 -12 -2 -26q-10 -57 -57.5 -97t-105 -40t-89.5 40q-25 30 -25 71q0 12 2 26z" />
<glyph unicode="&#x152;" horiz-adv-x="1869" d="M78 614q51 287 248.5 464t486.5 177q117 0 199 -26h882l-41 -232h-567q48 -99 48 -234q0 -16 -1 -32h473l-41 -233h-473q-47 -152 -139 -267h565l-41 -231h-880q-94 -27 -209 -27q-291 0 -426 178q-98 128 -98 314q0 70 14 149zM379 614q-13 -72 -13 -130 q0 -265 265 -265q322 0 389 395q13 72 13 131q0 264 -263 265q-319 -1 -391 -396z" />
<glyph unicode="&#x153;" horiz-adv-x="1761" d="M68 477q41 227 192.5 366.5t374.5 139.5q133 0 211 -39t121 -123q135 162 399 162q182 0 284 -88q83 -72 83 -172q0 -22 -4 -45q-25 -139 -148 -221t-321 -82q-121 0 -230 20q2 -190 246 -190q129 0 297 51l-41 -231q-150 -51 -287 -52q-291 0 -397 160 q-129 -160 -391 -160q-221 0 -325 139q-75 100 -75 248q0 55 11 117zM354 477q-8 -47 -8 -86q0 -71 27 -117q41 -70 139 -69.5t163.5 70t88.5 202.5q9 50 9 91q0 69 -25 113q-41 71 -139.5 71t-164 -70t-90.5 -205zM1079 612q96 -18 217 -18q150 0 166 84q1 6 1 12 q0 33 -29 53q-35 25 -107 25q-174 0 -248 -156z" />
<glyph unicode="&#x178;" horiz-adv-x="1032" d="M23 1229h333l219 -410l365 410h334l-604 -658l-101 -571h-274l100 571zM375 1432q10 57 57 97t105 40q55 0 88 -40q25 -30 25 -71q0 -13 -3 -26q-10 -55 -56 -95.5t-103.5 -40.5t-90.5 40q-25 30 -25 70q1 13 3 26zM717 1432q8 57 55 97t104.5 40t90.5 -40q25 -30 25 -71 q0 -13 -3 -26q-8 -55 -56 -95.5t-104 -40.5q-57 0 -90 40q-25 30 -25 70q1 13 3 26z" />
<glyph unicode="&#x2c6;" horiz-adv-x="546" d="M53 1092l250 409h301l105 -409h-226l-57 254l-147 -254h-226z" />
<glyph unicode="&#x2dc;" d="M217 1092l6 34q23 125 104 196t203 71q51 0 100.5 -23.5t76.5 -56.5q25 -29 49 -29q16 0 30.5 14.5t18.5 32.5l6 35h219l-6 -35q-23 -125 -102.5 -195.5t-202.5 -70.5q-111 0 -178 80q-25 29 -49 29q-16 0 -31 -14.5t-19 -33.5l-6 -34h-219z" />
<glyph unicode="&#x2013;" horiz-adv-x="1966" d="M90 369l39 219h1747l-39 -219h-1747z" />
<glyph unicode="&#x2014;" horiz-adv-x="2949" d="M90 369l39 219h2730l-39 -219h-2730z" />
<glyph unicode="&#x2018;" horiz-adv-x="628" d="M283 1229q12 68 68.5 116t124 48t107.5 -48q31 -37 30 -85q0 -15 -3 -31q-8 -55 -50 -98.5t-97 -59.5q8 -160 78 -319h-193q-76 185 -76 353q0 63 11 124z" />
<glyph unicode="&#x2019;" horiz-adv-x="628" d="M184 752q127 166 191 319q-49 16 -75 59q-19 33 -19 73q0 13 2 26q12 68 68.5 116t124 48t107.5 -48q31 -37 30 -85q0 -15 -3 -31q-39 -221 -233 -477h-193z" />
<glyph unicode="&#x201a;" horiz-adv-x="628" d="M-8 -342q129 168 188 322q-49 14 -74 58q-18 33 -18 72q0 13 2 27q12 68 68.5 116t124 48t107.5 -48q31 -37 31 -85q0 -15 -3 -31q-39 -221 -236 -479h-190z" />
<glyph unicode="&#x201c;" horiz-adv-x="1038" d="M283 1229q12 68 68.5 116t124 48t107.5 -48q31 -37 30 -85q0 -15 -3 -31q-8 -55 -50 -98.5t-97 -59.5q8 -160 78 -319h-193q-76 185 -76 353q0 63 11 124zM692 1229q12 68 68.5 116t124 48t107.5 -48q31 -37 31 -85q0 -15 -3 -31q-8 -55 -50 -98.5t-98 -59.5 q8 -160 78 -319h-192q-76 185 -76 353q-1 63 10 124z" />
<glyph unicode="&#x201d;" horiz-adv-x="1038" d="M184 752q127 166 191 319q-49 16 -75 59q-19 33 -19 73q0 13 2 26q12 68 68.5 116t124 48t107.5 -48q31 -37 30 -85q0 -15 -3 -31q-39 -221 -233 -477h-193zM594 752q127 166 190 319q-49 16 -74 59q-19 33 -20 73q0 13 2 26q12 68 68.5 116t124 48t107.5 -48 q31 -37 31 -85q0 -15 -3 -31q-39 -221 -234 -477h-192z" />
<glyph unicode="&#x201e;" horiz-adv-x="1038" d="M-8 -342q129 168 188 322q-49 14 -74 58q-18 33 -18 72q0 13 2 27q12 68 68.5 116t124 48t107.5 -48q31 -37 31 -85q0 -15 -3 -31q-39 -221 -236 -479h-190zM401 -342q129 168 189 322q-49 14 -74 58q-18 33 -18 72q0 13 2 27q12 68 68.5 116t124 48t107.5 -48 q31 -37 30 -85q0 -15 -3 -31q-39 -221 -235 -479h-191z" />
<glyph unicode="&#x2022;" horiz-adv-x="860" d="M121 547q23 133 134.5 226t244.5 93t210 -94q59 -73 59 -168q0 -28 -5 -57q-25 -133 -135.5 -227.5t-243.5 -94.5t-210 94q-59 73 -59 169q0 29 5 59z" />
<glyph unicode="&#x2026;" horiz-adv-x="1884" d="M90 137q12 68 68.5 116t124 48t107.5 -48q31 -37 31 -85q0 -15 -3 -31q-12 -70 -68.5 -117t-124 -47t-107.5 47q-31 36 -31 86q0 15 3 31zM719 137q10 68 67.5 116t125 48t106.5 -48q31 -38 31 -88q0 -13 -2 -28q-12 -70 -68.5 -117t-124.5 -47q-70 0 -109 47 q-30 36 -29 85q0 15 3 32zM1346 137q12 68 68 116t124 48q70 0 109 -48q30 -37 29 -84q0 -15 -3 -32q-12 -70 -68.5 -117t-124 -47t-107.5 47q-31 36 -30 86q0 15 3 31z" />
<glyph unicode="&#x2039;" d="M147 477l498 479h309l-497 -479l327 -477h-309z" />
<glyph unicode="&#x203a;" d="M29 0l497 477l-327 479h309l328 -479l-498 -477h-309z" />
<glyph unicode="&#x20ac;" horiz-adv-x="1114" d="M78 614q53 295 260 468t530 173q164 0 320 -53l-45 -246q-150 53 -318 54q-231 0 -344 -144h475l-36 -211h-533q0 -4 -3 -18l-5 -23q-4 -29 -6 -41h532l-39 -211h-473q61 -143 291 -143q168 0 340 53l-43 -245q-174 -53 -340 -54q-324 0 -469 173q-108 128 -108 323 q1 68 14 145z" />
<glyph unicode="&#x2122;" horiz-adv-x="1310" d="M135 1083l25 146h512l-25 -146h-168l-82 -469h-180l84 469h-166zM578 614l167 615h162l99 -185l161 185h162l-49 -615h-178l37 363l-127 -133h-84l-80 133l-90 -363h-180z" />
<glyph unicode="&#xe000;" horiz-adv-x="955" d="M0 955h955v-955h-955v955z" />
<glyph unicode="&#xfb01;" horiz-adv-x="1392" d="M-289 -547l39 234q63 -29 160 -29q76 0 127 37t61 100l164 928h-205l41 233h205l35 205q31 168 169 268.5t335 100.5q82 0 157 -29l-41 -231q-61 27 -157 26q-76 0 -127 -36.5t-62 -98.5l-37 -205h738l-121 -682q-1 -9 -1 -17q0 -52 56 -52q43 0 101 20l-39 -225 q-84 -27 -168 -27q-233 0 -234 194q0 36 8 79l84 477h-464l-164 -928q-29 -168 -167 -268t-335 -100q-88 -1 -158 26zM1087 1296q10 63 61.5 107.5t115.5 44.5q61 0 97 -44q28 -34 28 -80q0 -13 -3 -28q-10 -61 -62 -105t-114 -44q-63 0 -99 44q-27 33 -27 75q0 14 3 30z " />
<glyph unicode="&#xfb02;" horiz-adv-x="1409" d="M-289 -547l39 234q63 -29 160 -29q76 0 127 37t61 100l164 928h-205l41 233h205l25 136q35 205 185.5 321.5t422.5 116.5q236 0 481 -76l-209 -1180q-1 -9 -1 -17q0 -52 57 -52q43 0 100 20l-39 -225q-84 -27 -168 -27q-233 0 -233 194q0 36 8 79l180 1022 q-102 29 -217 28q-143 0 -210 -50t-85 -154l-25 -136h328l-41 -233h-327l-164 -928q-29 -168 -167 -268t-335 -100q-88 -1 -158 26z" />
<glyph unicode="&#xfb03;" horiz-adv-x="2293" d="M-289 -547l39 234q63 -29 160 -29q76 0 127 37t61 100l164 928h-205l41 233h205l35 205q31 168 169 268.5t335 100.5q82 0 157 -29l-41 -231q-61 27 -157 26q-76 0 -127 -36.5t-62 -98.5l-37 -205h328l-41 -233h-327l-164 -928q-29 -168 -167 -268t-335 -100 q-88 -1 -158 26zM571 -547l39 234q63 -29 160 -29q76 0 127 37t61 100l164 928h-204l40 233h205l35 205q31 168 169 268.5t335 100.5q82 0 158 -29l-41 -231q-61 27 -158 26q-76 0 -127 -36.5t-61 -98.5l-37 -205h327l-41 -233h-327l-164 -928q-29 -168 -167 -268t-335 -100 q-88 -1 -158 26zM1817 246l125 710h272l-121 -682q-1 -9 -1 -17q0 -52 56 -52q43 0 101 20l-39 -225q-84 -27 -168 -27q-233 0 -233 194q0 36 8 79zM1989 1296q10 63 61 107.5t115 44.5q61 0 97 -44q28 -34 28 -80q0 -13 -2 -28q-10 -61 -62.5 -105t-114.5 -44q-63 0 -99 44 q-27 33 -27 75q1 14 4 30z" />
<glyph unicode="&#xfb04;" horiz-adv-x="2293" d="M-289 -547l39 234q63 -29 160 -29q76 0 127 37t61 100l164 928h-205l41 233h205l35 205q31 168 169 268.5t335 100.5q82 0 157 -29l-41 -231q-61 27 -157 26q-76 0 -127 -36.5t-62 -98.5l-37 -205h328l-41 -233h-327l-164 -928q-29 -168 -167 -268t-335 -100 q-88 -1 -158 26zM571 -547l39 234q63 -29 160 -29q76 0 127 37t61 100l164 928h-204l40 233h205l35 205q31 168 169 268.5t335 100.5q82 0 158 -29l-41 -231q-61 27 -158 26q-76 0 -127 -36.5t-61 -98.5l-37 -205h327l-41 -233h-327l-164 -928q-29 -168 -167 -268t-335 -100 q-88 -1 -158 26zM1817 246l221 1255h272l-217 -1227q-1 -9 -1 -17q0 -52 56 -52q43 0 101 20l-39 -225q-84 -27 -168 -27q-233 0 -233 194q0 36 8 79z" />
<glyph horiz-adv-x="628" />
</font>
</defs>
</svg>
