<?xml version="1.0" standalone="no"?>
<!DOCTYPE svg PUBLIC "-//W3C//DTD SVG 1.1//EN" "http://www.w3.org/Graphics/SVG/1.1/DTD/svg11.dtd" >
<svg xmlns="http://www.w3.org/2000/svg">
<metadata>
This is a custom SVG webfont generated by Font Squirrel.
Copyright   : Copyright c 2009 YOFonts All rights reserved Version 401 Designed by Yamaoka Yasuhiro 19902009
Designer    : Yamaoka Yasuhiro
Foundry     : YOFonts
Foundry URL : wwwyoworkscom
</metadata>
<defs>
<font id="MidietSansBold" horiz-adv-x="983" >
<font-face units-per-em="2048" ascent="1638" descent="-410" />
<missing-glyph horiz-adv-x="628" />
<glyph unicode=" "  horiz-adv-x="628" />
<glyph unicode="&#x09;" horiz-adv-x="628" />
<glyph unicode="&#xa0;" horiz-adv-x="628" />
<glyph unicode="!" horiz-adv-x="628" d="M150 137q0 68 48 116t115 48q70 0 117 -48t47 -116q0 -70 -47 -117t-117 -47q-68 0 -115.5 47t-47.5 117zM178 410v819h273v-819h-273z" />
<glyph unicode="&#x22;" horiz-adv-x="1038" d="M137 752q100 170 131 319q-51 16 -84.5 59.5t-33.5 98.5q0 68 48 116t115 48q70 0 117 -48.5t47 -115.5q0 -227 -149 -477h-191zM547 752q100 170 131 319q-51 16 -85 59.5t-34 98.5q0 68 48 116t116 48q70 0 117 -48.5t47 -115.5q0 -227 -150 -477h-190z" />
<glyph unicode="#" d="M41 436v219h160l53 191h-100v219h159l45 164h193l-45 -164h145l45 164h191l-45 -164h100v-219h-160l-53 -191h100v-219h-159l-45 -164h-193l45 164h-145l-45 -164h-191l45 164h-100zM391 655h148l53 191h-148z" />
<glyph unicode="$" horiz-adv-x="1114" d="M55 840q0 135 100.5 249.5t284.5 151.5v260h232v-246q156 -8 354 -65v-246q-227 66 -422 66q-121 0 -185.5 -43t-64.5 -93q0 -117 203 -116q258 0 380 -92.5t122 -276.5q0 -137 -100.5 -249.5t-286.5 -151.5v-260h-232v247q-166 8 -352 64v246q227 -66 422 -66 q121 0 185.5 43t64.5 92q0 117 -203 117q-258 0 -380 92.5t-122 276.5z" />
<glyph unicode="%" horiz-adv-x="1366" d="M68 0l983 1229h245l-983 -1229h-245zM68 960.5q0 133.5 84 214t231 80.5t231 -80.5t84 -214t-84 -215t-231 -81.5t-231 81.5t-84 215zM274 961q0 -121 109 -121t109 121q0 119 -109 119t-109 -119zM668 268q0 133 84 215t231 82t230 -81t83 -216q0 -133 -83 -214 t-230 -81t-231 81t-84 214zM874 268q0 -119 109 -118.5t109 118.5q0 121 -109 121t-109 -121z" />
<glyph unicode="&#x26;" horiz-adv-x="1202" d="M27 313q0 117 76.5 203t209.5 170q-109 147 -108 270q0 133 88 216t239 83q156 0 242 -79.5t86 -219.5q0 -92 -59.5 -161.5t-163.5 -137.5l213 -245q10 47 10 94v26h246v-26q0 -154 -68 -270q42 -22 88 -23q30 0 62 10v-223q-42 -11 -84 -11q-112 0 -225 77 q-139 -92 -347 -93q-252 0 -378.5 92t-126.5 248zM313 342q0 -70 57.5 -114t161.5 -44q96 0 175 39l-265 307q-129 -92 -129 -188zM446 956q0 -61 64 -149q109 80 108 149q0 43 -23.5 69t-62.5 26q-41 0 -63.5 -26t-22.5 -69z" />
<glyph unicode="'" horiz-adv-x="628" d="M137 752q100 170 131 319q-51 16 -84.5 59.5t-33.5 98.5q0 68 48 116t115 48q70 0 117 -48.5t47 -115.5q0 -227 -149 -477h-191z" />
<glyph unicode="(" horiz-adv-x="886" d="M109 477q0 217 45 396.5t117.5 299t168 201.5t194.5 119t200 37v-219q-53 0 -112.5 -23.5t-126.5 -85t-119 -151.5t-87 -239.5t-35 -334t35 -333t87 -239.5t119 -151.5t126 -84t113 -23.5v-219q-100 0 -199.5 36.5t-195 118.5t-168 201t-117.5 299t-45 395z" />
<glyph unicode=")" horiz-adv-x="886" d="M55 -354q53 0 112.5 23.5t126 84t119 151.5t86 239.5t33.5 333t-33.5 334t-86 239.5t-119 151.5t-125.5 85t-113 23.5v219q98 0 197.5 -37t195 -119t168 -201.5t117.5 -299t45 -396.5q0 -215 -45 -395t-117.5 -299t-168 -201t-194.5 -118.5t-198 -36.5v219z" />
<glyph unicode="*" d="M16 756l392 131l-392 133l123 213l312 -272l-82 405h245l-82 -405l312 272l123 -213l-392 -133l392 -131l-123 -213l-312 272l82 -405h-245l82 405l-312 -272z" />
<glyph unicode="+" d="M109 436v219h274v273h217v-273h274v-219h-274v-272h-217v272h-274z" />
<glyph unicode="," horiz-adv-x="628" d="M137 -342q100 170 131 322q-51 14 -84.5 58t-33.5 99q0 68 48 116t115 48q70 0 117 -48t47 -116q0 -227 -149 -479h-191z" />
<glyph unicode="-" d="M109 436v219h765v-219h-765z" />
<glyph unicode="." horiz-adv-x="628" d="M150 137q0 68 48 116t115 48q70 0 117 -48t47 -116q0 -70 -47 -117t-117 -47q-68 0 -115.5 47t-47.5 117z" />
<glyph unicode="/" horiz-adv-x="1079" d="M-178 -547l1026 2048h258l-1026 -2048h-258z" />
<glyph unicode="0" horiz-adv-x="1091" d="M68 614q0 299 122.5 470t356 171t355.5 -171t122 -470t-122 -470t-355.5 -171t-356 171t-122.5 470zM354 614.5q0 -206.5 44 -308t149 -101.5q102 0 146 101.5t44 308t-44 308t-146 101.5q-104 0 -148.5 -101.5t-44.5 -308z" />
<glyph unicode="1" horiz-adv-x="1091" d="M150 645v273q246 82 489 313l139 -2v-1229h-272v821q-178 -119 -356 -176z" />
<glyph unicode="2" horiz-adv-x="1091" d="M82 0v117q0 139 34 239.5t88 151.5t119.5 84t131 50t120 37.5t88 60.5t33.5 104q0 94 -55 137t-170 43q-150 0 -307 -47v231q158 47 307 47q238 0 375 -110.5t137 -300.5q0 -96 -35 -168t-90 -114t-121.5 -71.5t-134 -52t-123 -47t-90.5 -64.5t-35 -96h656v-231h-928z " />
<glyph unicode="3" horiz-adv-x="1091" d="M109 -117v234q168 -49 335 -49q135 0 193.5 43t58.5 139q0 88 -48 134t-130 46h-258v232h258q82 0 130 47t48 135q0 94 -57 137t-182 43q-162 0 -320 -47v231q158 47 320 47q248 0 387 -110.5t139 -300.5q0 -94 -53 -179t-135 -118q82 -33 135 -119t53 -178 q0 -193 -141.5 -303.5t-397.5 -110.5q-173 0 -335 47z" />
<glyph unicode="4" horiz-adv-x="1091" d="M82 219v166q0 522 465 981h319q-240 -219 -367.5 -432t-142.5 -483h232v342h258v-342h178v-232h-178v-219h-258v219h-506z" />
<glyph unicode="5" horiz-adv-x="1091" d="M109 117q168 -49 335 -49q252 0 252 208q0 100 -57 154.5t-168 54.5q-160 0 -307 -49v793h792v-232h-520v-284q25 4 35 4q236 0 374 -121t138 -320q0 -201 -142.5 -320.5t-396.5 -119.5q-174 0 -335 47v234z" />
<glyph unicode="6" horiz-adv-x="1091" d="M82 385q0 522 465 981h319q-338 -313 -448 -606q78 39 182 39q178 0 294 -115t116 -299q0 -186 -131 -299t-332 -113q-203 0 -334 113t-131 299zM369 385q0 -88 48 -134t130 -46t129 46t47 134t-47 135t-129 47t-130 -47t-48 -135z" />
<glyph unicode="7" horiz-adv-x="1091" d="M82 997v232h956v-137q-424 -528 -424 -1229h-272q0 295 96.5 605t243.5 529h-600z" />
<glyph unicode="8" horiz-adv-x="1091" d="M68 383q0 213 182 330q-154 111 -154 297q0 172 125 277.5t326 105.5q199 0 324.5 -105.5t125.5 -277.5q0 -184 -155 -297q182 -117 182 -330q0 -182 -134 -296t-343 -114q-211 0 -345 114t-134 296zM354 399q0 -90 52.5 -142t140.5 -52t139 52t51 142t-51 142.5 t-139 52.5t-140.5 -52.5t-52.5 -142.5zM383 993.5q0 -75.5 44 -122t120 -46.5q74 0 119 47.5t45 121t-45 120.5t-119 47q-76 0 -120 -46t-44 -121.5z" />
<glyph unicode="9" horiz-adv-x="1091" d="M82 844q0 186 131 298.5t334 112.5q201 0 332 -112.5t131 -298.5q0 -522 -463 -981h-322q340 311 449 606q-78 -39 -182 -39q-178 0 -294 115t-116 299zM369 844q0 -88 48 -135t130 -47t129 47t47 135t-47 134t-129 46t-130 -46t-48 -134z" />
<glyph unicode=":" horiz-adv-x="628" d="M150 137q0 68 48 116t115 48q70 0 117 -48t47 -116q0 -70 -47 -117t-117 -47q-68 0 -115.5 47t-47.5 117zM150 819.5q0 67.5 48 115.5t115 48q70 0 117 -48t47 -115.5t-47 -116t-117 -48.5q-68 0 -115.5 48.5t-47.5 116z" />
<glyph unicode=";" horiz-adv-x="628" d="M137 -342q100 170 131 322q-51 14 -84.5 58t-33.5 99q0 68 48 116t115 48q70 0 117 -48t47 -116q0 -227 -149 -479h-191zM150 819.5q0 67.5 48 115.5t115 48q70 0 117 -48t47 -115.5t-47 -116t-117 -48.5q-68 0 -115.5 48.5t-47.5 116z" />
<glyph unicode="&#x3c;" d="M147 477l412 479h311l-413 -479l413 -477h-311z" />
<glyph unicode="=" d="M109 272v220h765v-220h-765zM109 600v219h765v-219h-765z" />
<glyph unicode="&#x3e;" d="M113 0l413 477l-413 479h311l412 -479l-412 -477h-311z" />
<glyph unicode="?" horiz-adv-x="956" d="M109 975v231q190 49 321 49q211 0 341 -95t130 -245q0 -90 -35 -152.5t-84 -95.5l-97 -65q-48 -31 -83 -78t-35 -114h-274q0 94 32.5 164.5t80 110.5t95.5 74t80.5 71.5t32.5 85t-46 78t-138 30.5q-128 0 -321 -49zM266 137q0 68 48 116t116 48t116 -48t48 -116 q0 -70 -48 -117t-116 -47t-116 47t-48 117z" />
<glyph unicode="@" horiz-adv-x="1746" d="M55 614.5q0 348.5 229.5 563.5t589.5 215q356 0 588 -189.5t232 -466.5q0 -213 -107.5 -333.5t-322.5 -120.5q-117 0 -181 49q-92 -49 -200 -49q-164 0 -270.5 91t-106.5 240.5t106.5 240.5t270.5 91q176 0 364 -59v-334q0 -47 82 -47q57 0 88 52t31 179 q0 197 -150.5 317t-423.5 120q-274 0 -423.5 -145.5t-149.5 -414t149.5 -414t423.5 -145.5q168 0 328 54v-218q-158 -55 -328 -55q-360 0 -589.5 215t-229.5 563.5zM762 614.5q0 -55.5 36 -89t93 -33.5q59 0 110 18v209q-49 18 -110 18q-57 0 -93 -33.5t-36 -89z" />
<glyph unicode="A" horiz-adv-x="1163" d="M-55 0l489 1229h295l490 -1229h-312l-98 272h-455l-98 -272h-311zM440 518h283l-141 397z" />
<glyph unicode="B" horiz-adv-x="1146" d="M137 0v1229h492q207 0 321.5 -93.5t114.5 -255t-147 -266.5q147 -104 147 -266t-114.5 -255t-321.5 -93h-492zM410 231h219q150 0 149.5 133.5t-149.5 133.5h-219v-267zM410 731h219q150 0 149.5 133t-149.5 133h-219v-266z" />
<glyph unicode="C" horiz-adv-x="1114" d="M55 614q0 295 176.5 468t499.5 173q164 0 328 -53v-246q-160 53 -328 54q-190 0 -283.5 -97.5t-93.5 -298t93.5 -298t283.5 -97.5q168 0 328 53v-245q-164 -53 -328 -54q-324 0 -500 173t-176 468z" />
<glyph unicode="D" horiz-adv-x="1325" d="M137 0v1229h484q311 0 480 -162t169 -452.5t-169 -452.5t-480 -162h-484zM410 231h211q180 0 264 92.5t84 291t-84 290.5t-264 92h-211v-766z" />
<glyph unicode="E" horiz-adv-x="1091" d="M137 0v1229h846v-232h-567v-266h567v-233h-567v-267h567v-231h-846z" />
<glyph unicode="F" horiz-adv-x="1038" d="M137 0v1229h846v-232h-567v-266h567v-233h-567v-498h-279z" />
<glyph unicode="G" horiz-adv-x="1222" d="M55 614q0 297 182.5 469t520.5 172q193 0 356 -53v-246q-164 53 -356 54q-205 0 -304.5 -97.5t-99.5 -298t99.5 -298t304.5 -97.5q51 0 76 2v311h280v-505q-164 -53 -356 -54q-338 0 -520.5 172t-182.5 469z" />
<glyph unicode="H" horiz-adv-x="1351" d="M137 0v1229h273v-477h532v477h272v-1229h-272v477h-532v-477h-273z" />
<glyph unicode="I" horiz-adv-x="559" d="M137 0v1229h287v-1229h-287z" />
<glyph unicode="J" horiz-adv-x="614" d="M-137 -313q66 -29 164 -29q76 0 119.5 37t43.5 100v1434h287v-1434q0 -168 -122 -268t-328 -100q-88 0 -164 26v234z" />
<glyph unicode="K" horiz-adv-x="1114" d="M137 0v1229h273v-635l440 635h332l-457 -615l457 -614h-332l-287 399l-153 -206v-193h-273z" />
<glyph unicode="L" horiz-adv-x="1009" d="M137 0v1229h287v-998h559v-231h-846z" />
<glyph unicode="M" horiz-adv-x="1497" d="M82 0l115 1229h260l291 -410l292 410h260l115 -1229h-287l-63 825l-250 -327h-133l-250 327l-63 -825h-287z" />
<glyph unicode="N" horiz-adv-x="1351" d="M137 0v1229h273l532 -764v764h272v-1229h-272l-532 764v-764h-273z" />
<glyph unicode="O" horiz-adv-x="1351" d="M55 614.5q0 286.5 166 463.5t455 177t454.5 -177t165.5 -463.5t-165.5 -464t-454.5 -177.5t-455 177.5t-166 464zM354 614.5q0 -395.5 321.5 -395.5t321.5 395.5t-321.5 395.5t-321.5 -395.5z" />
<glyph unicode="P" horiz-adv-x="1064" d="M137 0v1229h463q217 0 341 -106.5t124 -297t-124 -296t-341 -105.5h-190v-424h-273zM410 655h190q178 0 178 170q0 172 -178 172h-190v-342z" />
<glyph unicode="Q" horiz-adv-x="1351" d="M55 614.5q0 286.5 166 463.5t455 177t454.5 -177t165.5 -464q0 -209 -89 -363.5t-255 -225.5l230 -310q47 -57 139 -57q100 0 164 29v-234q-74 -27 -164 -26q-256 0 -371 161l-274 385q-289 0 -455 177.5t-166 464zM354 614.5q0 -395.5 321.5 -395.5t321.5 395.5 t-321.5 395.5t-321.5 -395.5z" />
<glyph unicode="R" horiz-adv-x="1146" d="M137 0v1229h463q217 0 341 -106.5t124 -297.5q0 -266 -229 -360l346 -465h-332l-303 424h-137v-424h-273zM410 655h190q178 0 178 170q0 172 -178 172h-190v-342z" />
<glyph unicode="S" horiz-adv-x="1114" d="M55 840q0 166 144.5 290.5t404.5 124.5q195 0 422 -65v-246q-227 66 -422 66q-121 0 -185.5 -43t-64.5 -93q0 -117 203 -116q258 0 380 -92.5t122 -276.5q0 -166 -144.5 -291t-404.5 -125q-195 0 -422 66v246q227 -66 422 -66q121 0 185.5 43t64.5 92q0 117 -203 117 q-258 0 -380 92.5t-122 276.5z" />
<glyph unicode="T" horiz-adv-x="1079" d="M27 997v232h1024v-232h-369v-997h-287v997h-368z" />
<glyph unicode="U" horiz-adv-x="1325" d="M123 477v752h272v-752q0 -258 266.5 -258t266.5 258v752h274v-752q0 -231 -142 -367.5t-398 -136.5t-397.5 136.5t-141.5 367.5z" />
<glyph unicode="V" horiz-adv-x="1163" d="M-55 1229h311l326 -881l325 881h312l-490 -1229h-295z" />
<glyph unicode="W" horiz-adv-x="2148" d="M-55 1229h311l326 -881l350 881h287l348 -881l325 881h312l-490 -1229h-295l-344 868l-346 -868h-295z" />
<glyph unicode="X" horiz-adv-x="1114" d="M-68 0l457 614l-457 615h332l293 -410l293 410h332l-457 -615l457 -614h-332l-293 410l-293 -410h-332z" />
<glyph unicode="Y" horiz-adv-x="1032" d="M-109 1229h332l293 -410l293 410h332l-488 -658v-571h-274v571z" />
<glyph unicode="Z" horiz-adv-x="1183" d="M68 0v137l620 846h-620v246h1048v-137l-622 -846h622v-246h-1048z" />
<glyph unicode="[" d="M260 -547v2048h655v-231h-397v-1583h397v-234h-655z" />
<glyph unicode="\" horiz-adv-x="1079" d="M-27 1501h258l1024 -2048h-258z" />
<glyph unicode="]" d="M68 -313h397v1583h-397v231h655v-2048h-655v234z" />
<glyph unicode="^" horiz-adv-x="546" d="M-55 1092l178 409h301l176 -409h-225l-103 254l-102 -254h-225z" />
<glyph unicode="_" d="M109 0v219h765v-219h-765z" />
<glyph unicode="`" horiz-adv-x="546" d="M-14 1501h245l179 -409h-246z" />
<glyph unicode="a" horiz-adv-x="1120" d="M68 280.5q0 135.5 106.5 221.5t290.5 86h217v26q0 63 -50 100.5t-147 37.5q-129 0 -321 -50v232q205 49 321 49q215 0 343 -97.5t128 -271.5v-340q0 -37 15.5 -53t52.5 -16q39 0 96 20v-225q-80 -27 -164 -27q-147 0 -213 78q-135 -78 -278 -78q-184 0 -290.5 86 t-106.5 221.5zM342 280.5q0 -102.5 123 -102.5q117 0 217 60v145h-217q-123 0 -123 -102.5z" />
<glyph unicode="b" horiz-adv-x="1132" d="M137 35v1466h273v-545q92 27 163 27q229 0 360.5 -139t131.5 -366.5t-131 -366t-361 -138.5q-200 1 -436 62zM410 223q84 -18 163 -18q98 0 151.5 69.5t53.5 202.5q0 135 -53 205t-152 70q-86 0 -163 -21v-508z" />
<glyph unicode="c" horiz-adv-x="942" d="M68 477.5q0 233.5 140 369.5t392 136q127 0 260 -43v-233q-131 45 -260 45q-246 0 -246 -275q0 -272 246 -272q125 0 260 43v-232q-133 -43 -260 -43q-252 0 -392 135.5t-140 369z" />
<glyph unicode="d" horiz-adv-x="1161" d="M68 477.5q0 227.5 131 366.5t360 139q72 0 164 -18v536h274v-1227q0 -37 15.5 -53t52.5 -16q39 0 96 20v-225q-80 -27 -164 -27q-129 0 -196 60q-119 -59 -242 -60q-229 0 -360 138.5t-131 366zM354 477q0 -133 53.5 -202.5t151.5 -69.5q86 0 164 33v493q-76 20 -164 21 q-98 0 -151.5 -71t-53.5 -204z" />
<glyph unicode="e" horiz-adv-x="1064" d="M68 477q0 229 128 367.5t343 138.5q217 0 337.5 -137t120.5 -369q0 -47 -6 -94h-641q35 -178 279 -178q129 0 286 51v-231q-143 -51 -286 -52q-264 0 -412.5 134t-148.5 370zM354 600h373q-14 84 -63.5 126t-124.5 42q-72 0 -122.5 -45t-62.5 -123z" />
<glyph unicode="f" horiz-adv-x="860" d="M14 723v233h205v205q0 168 120 268.5t316 100.5q82 0 164 -29v-231q-68 27 -164 26q-76 0 -119.5 -36.5t-43.5 -98.5v-205h327v-233h-327v-723h-273v723h-205z" />
<glyph unicode="g" horiz-adv-x="1009" d="M68 -205q0 135 80.5 228.5t220.5 126.5q-27 18 -27 55t27 55q-139 33 -220 126t-81 228q0 168 120.5 268.5t317.5 100.5q201 0 436 -61v-308q0 -125 -70.5 -216t-191.5 -128q-66 -20 -66 -65t66 -66q123 -39 192.5 -129t69.5 -215q0 -168 -120 -268t-316.5 -100t-317 100 t-120.5 268zM342 -204.5q0 -63.5 44 -100.5t120 -37t120 37t44 100.5t-44 100t-120 36.5t-120 -36.5t-44 -100zM342 614.5q0 -63.5 44 -100.5t120 -37t120 37t44 100v117q-78 20 -164 21q-76 0 -120 -37t-44 -100.5z" />
<glyph unicode="h" horiz-adv-x="1132" d="M137 0v1501h273v-545q92 27 163 27q197 0 317 -100.5t120 -268.5v-614h-273v614q0 63 -44 100.5t-120 37.5q-86 0 -163 -21v-731h-273z" />
<glyph unicode="i" horiz-adv-x="546" d="M123 1296q0 63 44 107.5t105 44.5q63 0 107.5 -44t44.5 -108q0 -61 -44 -105t-108 -44q-61 0 -105 44t-44 105zM137 0v956h273v-956h-273z" />
<glyph unicode="j" horiz-adv-x="573" d="M0 -322q53 -20 96 -20q68 0 68 70v1228h272v-1257q0 -272 -272 -272q-84 0 -164 26v225zM150 1296q0 63 44 107.5t107 44.5q61 0 105.5 -44t44.5 -108q0 -61 -44.5 -105t-105.5 -44q-63 0 -107 44t-44 105z" />
<glyph unicode="k" horiz-adv-x="1064" d="M137 0v1501h273v-956l348 411h321l-413 -479l413 -477h-321l-248 297l-100 -115v-182h-273z" />
<glyph unicode="l" horiz-adv-x="573" d="M137 246v1255h273v-1227q0 -37 16 -53t51 -16q43 0 96 20v-225q-80 -27 -163 -27q-273 1 -273 273z" />
<glyph unicode="m" horiz-adv-x="1734" d="M137 0v922q236 61 436 61q195 0 316 -100q111 100 285 100q197 0 317.5 -100.5t120.5 -268.5v-614h-275v614q0 63 -44 100.5t-119.5 37.5t-119.5 -37t-44 -101v-614h-273v614q0 63 -44 100.5t-120 37.5q-86 0 -163 -21v-731h-273z" />
<glyph unicode="n" horiz-adv-x="1132" d="M137 0v922q236 61 436 61q197 0 317 -100.5t120 -268.5v-614h-273v614q0 63 -44 100.5t-120 37.5q-86 0 -163 -21v-731h-273z" />
<glyph unicode="o" horiz-adv-x="1120" d="M68 477.5q0 227.5 131 366.5t360 139t360.5 -139t131.5 -366.5t-131.5 -366t-360.5 -138.5t-360 138.5t-131 366zM354 477q0 -133 53.5 -202.5t151.5 -69.5t151.5 69.5t53.5 202.5q0 135 -53.5 205t-151.5 70t-151.5 -71t-53.5 -204z" />
<glyph unicode="p" horiz-adv-x="1132" d="M137 -547v1469q236 61 436 61q229 0 360.5 -139t131.5 -366.5t-131 -366t-361 -138.5q-72 0 -163 27v-547h-273zM410 223q84 -18 163 -18q98 0 151.5 69.5t53.5 202.5q0 135 -53 205t-152 70q-86 0 -163 -21v-508z" />
<glyph unicode="q" horiz-adv-x="1132" d="M68 477.5q0 227.5 131 366.5t360 139q201 0 438 -61v-1194q0 -70 68 -70q39 0 96 20v-225q-80 -27 -164 -26q-274 0 -274 272v301q-92 -27 -164 -27q-229 0 -360 138.5t-131 366zM354 477q0 -133 53.5 -202.5t151.5 -69.5q82 0 164 18v508q-76 20 -164 21 q-98 0 -151.5 -71t-53.5 -204z" />
<glyph unicode="r" horiz-adv-x="866" d="M137 0v922q236 61 436 61q127 0 261 -43v-233q-127 45 -261 45q-86 0 -163 -21v-731h-273z" />
<glyph unicode="s" horiz-adv-x="915" d="M68 655q0 133 114.5 230.5t315.5 97.5q152 0 336 -51v-234q-182 53 -336 53.5t-154 -75.5q0 -68 113 -68q389 0 389 -307q0 -133 -114 -230.5t-316 -97.5q-150 0 -334 52v231q186 -51 334 -51q154 0 153 76q0 68 -112 67q-389 0 -389 307z" />
<glyph unicode="t" horiz-adv-x="901" d="M14 723v233h205v252l273 41v-293h327v-233h-327v-381q0 -63 44 -100t119 -37q96 0 164 26v-231q-76 -27 -164 -27q-197 0 -316.5 100.5t-119.5 268.5v381h-205z" />
<glyph unicode="u" horiz-adv-x="1161" d="M123 342v614h272v-614q0 -63 44 -100t120 -37q86 0 164 33v718h274v-682q0 -37 15.5 -53t52.5 -16q39 0 96 20v-225q-80 -27 -164 -27q-129 0 -196 60q-119 -59 -242 -60q-197 0 -316.5 100.5t-119.5 268.5z" />
<glyph unicode="v" horiz-adv-x="1024" d="M0 956h297l215 -608l215 608h297l-385 -956h-254z" />
<glyph unicode="w" horiz-adv-x="1779" d="M0 956h297l215 -608l244 608h268l244 -608l215 608h297l-385 -956h-254l-250 623l-252 -623h-254z" />
<glyph unicode="x" horiz-adv-x="1038" d="M0 0l358 477l-358 479h322l196 -284l199 284h321l-358 -479l358 -477h-321l-199 285l-196 -285h-322z" />
<glyph unicode="y" horiz-adv-x="1024" d="M0 956h301l211 -585l211 585h301l-625 -1503h-284l254 610z" />
<glyph unicode="z" d="M68 0v137l419 574h-419v245h847v-137l-421 -573h421v-246h-847z" />
<glyph unicode="{" horiz-adv-x="833" d="M109 354v246h69q88 0 133 49q37 40 37 110q0 16 -2 34l-45 462q-2 23 -2 45q0 104 57 161q70 69 203 69q92 0 164 -29v-225q-45 20 -96 20q-68 0 -68 -59v-10l47 -434q3 -24 3 -48q0 -88 -44 -154q-55 -83 -157 -114q102 -31 157 -113q44 -66 44 -155q0 -23 -3 -47 l-47 -434v-11q0 -59 68 -59q43 0 96 20v-225q-76 -27 -164 -26q-133 0 -203 67q-58 56 -57 160q0 21 2 45l45 463q2 17 2 33q0 70 -37 110q-45 49 -133 49h-69z" />
<glyph unicode="|" horiz-adv-x="655" d="M205 -547v2048h246v-2048h-246z" />
<glyph unicode="}" horiz-adv-x="833" d="M109 -322q57 -20 96 -20q69 0 69 54q0 7 -2 16l-45 434q-3 25 -3 49q0 89 43 154q54 82 157 112q-102 31 -157 114q-43 66 -43 153q0 23 3 49l45 434q1 8 2 15q0 54 -69 54q-49 0 -96 -20v225q76 29 163 29q133 0 204 -69q59 -57 59 -161q0 -21 -3 -45l-47 -462 q-1 -14 -1 -28q0 -74 38 -116q45 -49 133 -49h68v-246h-68q-90 0 -134 -49q-37 -41 -37 -115q0 -14 1 -28l47 -463q2 -23 3 -44q0 -104 -59 -161q-71 -68 -204 -67q-84 0 -163 26v225z" />
<glyph unicode="~" d="M109 547v217q123 82 219 82t193 -54.5t134 -54.5q90 0 219 82v-219q-129 -82 -219 -82q-96 0 -193 55.5t-134 55.5q-90 0 -219 -82z" />
<glyph unicode="&#xa0;" />
<glyph unicode="&#xa1;" horiz-adv-x="628" d="M150 1092q0 70 48 116.5t115 46.5q70 0 117 -47t47 -116q0 -68 -47 -116t-117 -48q-68 0 -115.5 48t-47.5 116zM178 0v819h273v-819h-273z" />
<glyph unicode="&#xa2;" horiz-adv-x="942" d="M68 614.5q0 192.5 97 320.5t275 167v264h232v-250q115 -14 188 -41v-231q-135 43 -260 43q-246 0 -246 -272.5t246 -272.5q125 0 260 43v-231q-74 -27 -188 -41v-250h-232v264q-178 39 -275 167t-97 320.5z" />
<glyph unicode="&#xa3;" horiz-adv-x="1091" d="M82 492v231h164v164q0 168 119.5 268t316.5 100q158 0 315 -41v-231q-158 41 -315 41q-76 0 -120 -37t-44 -100v-164h369v-231h-369v-246q82 -41 178 -41q150 0 342 49v-231q-190 -49 -342 -50q-133 0 -256 60q-66 -59 -194 -60q-84 0 -164 27v225q53 -20 96 -20 q35 0 51.5 16.5t16.5 52.5v218h-164z" />
<glyph unicode="&#xa5;" horiz-adv-x="1032" d="M-109 1229h332l293 -410l293 410h332l-443 -567h252v-232h-297v-430h-274v430h-297v232h252z" />
<glyph unicode="&#xa6;" horiz-adv-x="655" d="M205 410h246v-957h-246v957zM205 547v954h246v-954h-246z" />
<glyph unicode="&#xa7;" horiz-adv-x="1222" d="M109 438q0 80 44 158t119 109q-164 78 -163 272q0 166 144 291t404 125q197 0 424 -66v-246q-227 66 -424 66q-121 0 -184 -43t-63 -92q0 -117 202 -117q258 0 380 -92t122 -277q0 -82 -43 -158.5t-119 -107.5q162 -78 162 -272q0 -166 -144.5 -292t-404.5 -126 q-186 0 -424 68v245q238 -68 424 -67q121 0 184.5 44t63.5 93q0 117 -201 117q-258 0 -380.5 92t-122.5 276zM410 471q0 -115 178 -115q111 0 168 43t57 93q0 117 -176 116q-111 -2 -169 -45t-58 -92z" />
<glyph unicode="&#xa8;" horiz-adv-x="546" d="M-35 1296q0 55 40 95.5t97.5 40.5t97.5 -40t40 -96q0 -57 -40 -97t-97.5 -40t-97.5 40t-40 97zM307 1296q0 55 40 95.5t97 40.5q55 0 95.5 -40t40.5 -96q0 -57 -40 -97t-96 -40q-57 0 -97 40t-40 97z" />
<glyph unicode="&#xa9;" horiz-adv-x="1611" d="M55 614.5q0 311.5 219.5 531.5t530.5 220t531 -220t220 -531.5t-220 -531.5t-531 -220t-530.5 220t-219.5 531.5zM225 614.5q0 -239.5 170 -409.5t410 -170q242 0 411.5 170t169.5 409.5t-169.5 409.5t-411.5 170q-240 0 -410 -170t-170 -409.5zM395 614.5 q0 196.5 118 312t333 115.5q117 0 219 -36v-164q-115 37 -219 37q-250 0 -250 -264.5t250 -264.5q104 0 219 37v-164q-102 -37 -219 -37q-215 0 -333 116t-118 312.5z" />
<glyph unicode="&#xaa;" horiz-adv-x="937" d="M68 694q0 106 88 180t258 74h153v13q0 41 -36.5 67.5t-100.5 26.5q-109 0 -256 -41v203q152 39 256 38q172 0 274.5 -77.5t102.5 -216.5v-259q0 -55 53 -55q33 0 78 17v-195q-57 -20 -131 -20q-119 0 -170 61q-106 -61 -223 -61q-164 0 -255 65t-91 180zM301 137 q0 68 47 116t117 48q68 0 116 -48t48 -116q0 -70 -48.5 -117t-115.5 -47q-70 0 -117 47t-47 117zM322 694q0 -70 92 -69q74 0 153 45v98h-153q-45 0 -68.5 -21.5t-23.5 -52.5z" />
<glyph unicode="&#xab;" d="M82 477l205 479h272l-205 -479l205 -477h-272zM457 477l205 479h274l-205 -479l205 -477h-274z" />
<glyph unicode="&#xad;" d="M109 436v219h765v-219h-765z" />
<glyph unicode="&#xae;" horiz-adv-x="1611" d="M55 614.5q0 311.5 219.5 531.5t530.5 220t531 -220t220 -531.5t-220 -531.5t-531 -220t-530.5 220t-219.5 531.5zM225 614.5q0 -239.5 170 -409.5t410 -170q242 0 411.5 170t169.5 409.5t-169.5 409.5t-411.5 170q-240 0 -410 -170t-170 -409.5zM510 205v819h309 q145 0 227 -70.5t82 -197.5q0 -178 -151 -242l229 -309h-221l-201 282h-92v-282h-182zM692 641h127q119 0 119 115q0 113 -119 112h-127v-227z" />
<glyph unicode="&#xaf;" d="M109 1092v219h765v-219h-765z" />
<glyph unicode="&#xb0;" horiz-adv-x="927" d="M109 901.5q0 147.5 104 250.5t252 103q145 0 249.5 -103t104.5 -250.5t-104.5 -251t-249.5 -103.5q-147 0 -251.5 103.5t-104.5 251zM342 901q0 -51 36 -87t87 -36t87 36t36 87t-36 87t-87 36t-87 -36t-36 -87z" />
<glyph unicode="&#xb1;" d="M109 0v219h765v-219h-765zM109 539v219h274v272h217v-272h274v-219h-274v-273h-217v273h-274z" />
<glyph unicode="&#xb2;" horiz-adv-x="1091" d="M82 0v117q0 139 34 239.5t88 151.5t119.5 84t131 50t120 37.5t88 60.5t33.5 104q0 94 -55 137t-170 43q-150 0 -307 -47v231q158 47 307 47q238 0 375 -110.5t137 -300.5q0 -96 -35 -168t-90 -114t-121.5 -71.5t-134 -52t-123 -47t-90.5 -64.5t-35 -96h656v-231h-928z " />
<glyph unicode="&#xb3;" horiz-adv-x="1091" d="M109 -117v234q168 -49 335 -49q135 0 193.5 43t58.5 139q0 88 -48 134t-130 46h-258v232h258q82 0 130 47t48 135q0 94 -57 137t-182 43q-162 0 -320 -47v231q158 47 320 47q248 0 387 -110.5t139 -300.5q0 -94 -53 -179t-135 -118q82 -33 135 -119t53 -178 q0 -193 -141.5 -303.5t-397.5 -110.5q-173 0 -335 47z" />
<glyph unicode="&#xb4;" horiz-adv-x="546" d="M137 1092l176 409h246l-176 -409h-246z" />
<glyph unicode="&#xb5;" horiz-adv-x="1161" d="M123 -547v1503h272v-614q0 -63 44 -100t120 -37q86 0 164 33v718h274v-682q0 -37 15.5 -53t52.5 -16q39 0 96 20v-225q-80 -27 -164 -27q-135 0 -196 60q-109 -59 -219 -60q-119 0 -187 41v-561h-272z" />
<glyph unicode="&#x3bc;" horiz-adv-x="1161" d="M123 -547v1503h272v-614q0 -63 44 -100t120 -37q86 0 164 33v718h274v-682q0 -37 15.5 -53t52.5 -16q39 0 96 20v-225q-80 -27 -164 -27q-135 0 -196 60q-109 -59 -219 -60q-119 0 -187 41v-561h-272z" />
<glyph unicode="&#xb6;" horiz-adv-x="1167" d="M68 1024q0 229 139 367.5t387 138.5q186 0 436 -62v-1740h-252v819q-41 -12 -123 -25v-794h-252v817q-160 49 -247.5 175t-87.5 304zM342 1024q0 -283 252 -283q100 0 184 27v512q-84 27 -184 27q-252 0 -252 -283z" />
<glyph unicode="&#xb7;" horiz-adv-x="628" d="M123 547q0 78 56.5 134t133.5 56q80 0 136.5 -56t56.5 -134q0 -80 -56.5 -136.5t-136.5 -56.5q-78 0 -134 56.5t-56 136.5z" />
<glyph unicode="&#xb8;" d="M281 -410l176 410h245l-176 -410h-245z" />
<glyph unicode="&#xb9;" horiz-adv-x="1091" d="M150 645v273q246 82 489 313l139 -2v-1229h-272v821q-178 -119 -356 -176z" />
<glyph unicode="&#xba;" horiz-adv-x="923" d="M68 852q0 182 104 292.5t288.5 110.5t289 -110.5t104.5 -292.5t-104.5 -292.5t-289 -110.5t-288.5 110.5t-104 292.5zM297 137q0 68 48 116t116 48q70 0 117 -48t47 -116q0 -70 -47.5 -117t-116.5 -47q-68 0 -116 47t-48 117zM322 852q0 -186 139 -186t139 186t-139 186 t-139 -186z" />
<glyph unicode="&#xbb;" d="M47 0l205 477l-205 479h275l204 -479l-204 -477h-275zM424 0l205 477l-205 479h272l205 -479l-205 -477h-272z" />
<glyph unicode="&#xbf;" horiz-adv-x="956" d="M55 313q0 90 35 152.5t83 96.5t97 64.5t84 78t35 114.5h273q0 -94 -33 -164.5t-80 -110.5t-94 -74t-80 -72t-33 -85t46 -77.5t138 -30.5q129 0 320 49v-231q-190 -49 -320 -50q-211 0 -341 95t-130 245zM362 1092q0 70 47.5 116.5t116.5 46.5q68 0 116 -47t48 -116 q0 -68 -48 -116t-116 -48q-70 0 -117 48t-47 116z" />
<glyph unicode="&#xc0;" horiz-adv-x="1163" d="M-55 0l489 1229h295l490 -1229h-312l-98 272h-455l-98 -272h-311zM264 1774h246l178 -410h-246zM440 518h283l-141 397z" />
<glyph unicode="&#xc1;" horiz-adv-x="1163" d="M-55 0l489 1229h295l490 -1229h-312l-98 272h-455l-98 -272h-311zM440 518h283l-141 397zM473 1364l176 410h246l-176 -410h-246z" />
<glyph unicode="&#xc2;" horiz-adv-x="1163" d="M-55 0l489 1229h295l490 -1229h-312l-98 272h-455l-98 -272h-311zM250 1364l178 410h301l176 -410h-225l-102 254l-103 -254h-225zM440 518h283l-141 397z" />
<glyph unicode="&#xc3;" horiz-adv-x="1163" d="M-55 0l489 1229h295l490 -1229h-312l-98 272h-455l-98 -272h-311zM195 1364v35q0 125 68.5 195.5t191.5 70.5q111 0 190 -80q33 -29 55 -29q16 0 28.5 14.5t12.5 33.5v34h220v-34q0 -125 -69 -196t-192 -71q-111 0 -190 80q-33 29 -55 29q-16 0 -28.5 -14.5t-12.5 -32.5 v-35h-219zM440 518h283l-141 397z" />
<glyph unicode="&#xc4;" horiz-adv-x="1163" d="M-55 0l489 1229h295l490 -1229h-312l-98 272h-455l-98 -272h-311zM279 1434q0 55 39.5 95t97 40t97.5 -40t40 -95q0 -57 -40 -97.5t-97.5 -40.5t-97 40.5t-39.5 97.5zM440 518h283l-141 397zM621 1434q0 55 39.5 95t97.5 40q55 0 95 -40t40 -95q0 -57 -40 -97.5 t-95 -40.5q-57 0 -97 40.5t-40 97.5z" />
<glyph unicode="&#xc5;" horiz-adv-x="1163" d="M-55 0l483 1212q-98 78 -98 201q0 104 73.5 178t178 74t178.5 -73.5t74 -178.5q0 -123 -99 -201l484 -1212h-312l-98 272h-455l-98 -272h-311zM440 518h283l-141 397zM500 1413q0 -33 24.5 -57.5t57 -24.5t57.5 24.5t25 57.5t-25 57.5t-57.5 24.5t-57 -24.5t-24.5 -57.5z " />
<glyph unicode="&#xc6;" horiz-adv-x="1570" d="M-55 0l489 1229h1026v-232h-610l65 -266h545v-233h-485l65 -267h420v-231h-667l-64 272h-375l-98 -272h-311zM440 518h232l-90 397z" />
<glyph unicode="&#xc7;" horiz-adv-x="1114" d="M55 614q0 295 176.5 468t499.5 173q164 0 328 -53v-246q-160 53 -328 54q-190 0 -283.5 -97.5t-93.5 -298t93.5 -298t283.5 -97.5q168 0 328 53v-245q-125 -41 -279 -52l-166 -385h-245l174 400q-236 49 -362 212.5t-126 411.5z" />
<glyph unicode="&#xc8;" horiz-adv-x="1091" d="M137 0v1229h846v-232h-567v-266h567v-233h-567v-267h567v-231h-846zM258 1774h246l178 -410h-246z" />
<glyph unicode="&#xc9;" horiz-adv-x="1091" d="M137 0v1229h846v-232h-567v-266h567v-233h-567v-267h567v-231h-846zM430 1364l176 410h246l-176 -410h-246z" />
<glyph unicode="&#xca;" horiz-adv-x="1091" d="M137 0v1229h846v-232h-567v-266h567v-233h-567v-267h567v-231h-846zM238 1364l178 410h301l176 -410h-225l-103 254l-102 -254h-225z" />
<glyph unicode="&#xcb;" horiz-adv-x="1091" d="M137 0v1229h846v-232h-567v-266h567v-233h-567v-267h567v-231h-846zM252 1434q0 55 40 95t97 40t97 -40t40 -95q0 -57 -40 -97.5t-97 -40.5t-97 40.5t-40 97.5zM594 1434q0 55 40 95t97 40q55 0 95 -40t40 -95q0 -57 -40 -97.5t-95 -40.5q-57 0 -97 40.5t-40 97.5z" />
<glyph unicode="&#xcc;" horiz-adv-x="559" d="M-14 1774h245l179 -410h-246zM137 0v1229h287v-1229h-287z" />
<glyph unicode="&#xcd;" horiz-adv-x="559" d="M135 1364l176 410h246l-176 -410h-246zM137 0v1229h287v-1229h-287z" />
<glyph unicode="&#xce;" horiz-adv-x="559" d="M-43 1364l178 410h301l176 -410h-225l-102 254l-103 -254h-225zM137 0v1229h287v-1229h-287z" />
<glyph unicode="&#xcf;" horiz-adv-x="559" d="M-29 1434q0 55 40 95t97.5 40t97.5 -40t40 -95q0 -57 -40 -97.5t-97.5 -40.5t-97.5 40.5t-40 97.5zM137 0v1229h287v-1229h-287zM313 1434q0 55 40 95t98 40q55 0 95 -40t40 -95q0 -57 -40 -97.5t-95 -40.5q-57 0 -97.5 40.5t-40.5 97.5z" />
<glyph unicode="&#xd0;" horiz-adv-x="1325" d="M0 506v217h137v506h484q311 0 480 -162t169 -452.5t-169 -452.5t-480 -162h-484v506h-137zM410 231h211q180 0 264 92.5t84 291t-84 290.5t-264 92h-211v-274h108v-217h-108v-275z" />
<glyph unicode="&#xd1;" horiz-adv-x="1351" d="M137 0v1229h273l532 -764v764h272v-1229h-272l-532 764v-764h-273zM303 1364v35q0 125 68.5 195.5t191.5 70.5q111 0 191 -80q33 -29 55 -29q16 0 28.5 14.5t12.5 33.5v34h219v-34q0 -125 -68.5 -196t-191.5 -71q-111 0 -191 80q-33 29 -55 29q-16 0 -28.5 -14.5 t-12.5 -32.5v-35h-219z" />
<glyph unicode="&#xd2;" horiz-adv-x="1351" d="M55 614.5q0 286.5 166 463.5t455 177t454.5 -177t165.5 -463.5t-165.5 -464t-454.5 -177.5t-455 177.5t-166 464zM354 614.5q0 -395.5 321.5 -395.5t321.5 395.5t-321.5 395.5t-321.5 -395.5zM367 1774h245l179 -410h-246z" />
<glyph unicode="&#xd3;" horiz-adv-x="1351" d="M55 614.5q0 286.5 166 463.5t455 177t454.5 -177t165.5 -463.5t-165.5 -464t-454.5 -177.5t-455 177.5t-166 464zM354 614.5q0 -395.5 321.5 -395.5t321.5 395.5t-321.5 395.5t-321.5 -395.5zM543 1364l176 410h246l-177 -410h-245z" />
<glyph unicode="&#xd4;" horiz-adv-x="1351" d="M55 614.5q0 286.5 166 463.5t455 177t454.5 -177t165.5 -463.5t-165.5 -464t-454.5 -177.5t-455 177.5t-166 464zM336 1364l178 410h301l176 -410h-225l-102 254l-103 -254h-225zM354 614.5q0 -395.5 321.5 -395.5t321.5 395.5t-321.5 395.5t-321.5 -395.5z" />
<glyph unicode="&#xd5;" horiz-adv-x="1351" d="M55 614.5q0 286.5 166 463.5t455 177t454.5 -177t165.5 -463.5t-165.5 -464t-454.5 -177.5t-455 177.5t-166 464zM297 1364v35q0 125 68.5 195.5t191.5 70.5q111 0 191 -80q33 -29 55 -29q16 0 28.5 14.5t12.5 33.5v34h219v-34q0 -125 -68.5 -196t-191.5 -71 q-111 0 -191 80q-33 29 -55 29q-16 0 -28.5 -14.5t-12.5 -32.5v-35h-219zM354 614.5q0 -395.5 321.5 -395.5t321.5 395.5t-321.5 395.5t-321.5 -395.5z" />
<glyph unicode="&#xd6;" horiz-adv-x="1351" d="M55 614.5q0 286.5 166 463.5t455 177t454.5 -177t165.5 -463.5t-165.5 -464t-454.5 -177.5t-455 177.5t-166 464zM354 614.5q0 -395.5 321.5 -395.5t321.5 395.5t-321.5 395.5t-321.5 -395.5zM369 1434q0 55 40 95t97 40t97 -40t40 -95q0 -57 -40 -97.5t-97 -40.5 t-97 40.5t-40 97.5zM711 1434q0 55 40 95t97 40q55 0 95 -40t40 -95q0 -57 -40 -97.5t-95 -40.5q-57 0 -97 40.5t-40 97.5z" />
<glyph unicode="&#xd7;" d="M111 319l227 228l-227 227l153 154l228 -228l227 228l153 -154l-227 -227l227 -228l-153 -155l-227 227l-228 -227z" />
<glyph unicode="&#xd8;" horiz-adv-x="1351" d="M55 614.5q0 286.5 166 463.5t455 177t454.5 -177t165.5 -463.5t-165.5 -464t-454.5 -177.5t-455 177.5t-166 464zM354 614q0 -164 58 -262l327 654q-18 4 -63 4q-322 -1 -322 -396zM606 223q45 -4 70 -4q322 0 321 395q0 170 -61 269z" />
<glyph unicode="&#xd9;" horiz-adv-x="1325" d="M123 477v752h272v-752q0 -258 266.5 -258t266.5 258v752h274v-752q0 -231 -142 -367.5t-398 -136.5t-397.5 136.5t-141.5 367.5zM354 1774h246l178 -410h-246z" />
<glyph unicode="&#xda;" horiz-adv-x="1325" d="M123 477v752h272v-752q0 -258 266.5 -258t266.5 258v752h274v-752q0 -231 -142 -367.5t-398 -136.5t-397.5 136.5t-141.5 367.5zM520 1364l176 410h246l-176 -410h-246z" />
<glyph unicode="&#xdb;" horiz-adv-x="1325" d="M123 477v752h272v-752q0 -258 266.5 -258t266.5 258v752h274v-752q0 -231 -142 -367.5t-398 -136.5t-397.5 136.5t-141.5 367.5zM328 1364l178 410h301l176 -410h-225l-103 254l-102 -254h-225z" />
<glyph unicode="&#xdc;" horiz-adv-x="1325" d="M123 477v752h272v-752q0 -258 266.5 -258t266.5 258v752h274v-752q0 -231 -142 -367.5t-398 -136.5t-397.5 136.5t-141.5 367.5zM358 1434q0 55 40 95t97.5 40t97.5 -40t40 -95q0 -57 -40 -97.5t-97.5 -40.5t-97.5 40.5t-40 97.5zM700 1434q0 55 40 95t98 40q55 0 95 -40 t40 -95q0 -57 -40 -97.5t-95 -40.5q-57 0 -97.5 40.5t-40.5 97.5z" />
<glyph unicode="&#xdd;" horiz-adv-x="1032" d="M-109 1229h332l293 -410l293 410h332l-488 -658v-571h-274v571zM391 1364l176 410h246l-176 -410h-246z" />
<glyph unicode="&#xde;" horiz-adv-x="1064" d="M137 0v1229h273v-211h190q217 0 341 -106.5t124 -297t-123 -297t-342 -106.5h-190v-211h-273zM410 444h190q178 0 178 170t-178 170h-190v-340z" />
<glyph unicode="&#xdf;" horiz-adv-x="1325" d="M137 0v1161q0 168 120 268.5t316 100.5q201 0 319 -109.5t118 -314.5q0 -96 -27 -166t-64.5 -105.5t-74.5 -60t-63.5 -48.5t-26.5 -50q0 -68 112 -68q389 0 389 -307q0 -133 -113.5 -230.5t-316.5 -97.5q-150 0 -333 52v231q186 -51 333 -51q154 0 154 76q0 68 -113 67 q-389 0 -389 307q0 70 26.5 118t64.5 76l77 57q39 30 65.5 79t26.5 121q0 190 -164 190q-76 0 -119.5 -36.5t-43.5 -98.5v-1161h-273z" />
<glyph unicode="&#xe0;" horiz-adv-x="1120" d="M68 280.5q0 135.5 106.5 221.5t290.5 86h217v26q0 63 -50 100.5t-147 37.5q-129 0 -321 -50v232q205 49 321 49q215 0 343 -97.5t128 -271.5v-340q0 -37 15.5 -53t52.5 -16q39 0 96 20v-225q-80 -27 -164 -27q-147 0 -213 78q-135 -78 -278 -78q-184 0 -290.5 86 t-106.5 221.5zM244 1501h245l179 -409h-246zM342 280.5q0 -102.5 123 -102.5q117 0 217 60v145h-217q-123 0 -123 -102.5z" />
<glyph unicode="&#xe1;" horiz-adv-x="1120" d="M68 280.5q0 135.5 106.5 221.5t290.5 86h217v26q0 63 -50 100.5t-147 37.5q-129 0 -321 -50v232q205 49 321 49q215 0 343 -97.5t128 -271.5v-340q0 -37 15.5 -53t52.5 -16q39 0 96 20v-225q-80 -27 -164 -27q-147 0 -213 78q-135 -78 -278 -78q-184 0 -290.5 86 t-106.5 221.5zM342 280.5q0 -102.5 123 -102.5q117 0 217 60v145h-217q-123 0 -123 -102.5zM422 1092l176 409h246l-176 -409h-246z" />
<glyph unicode="&#xe2;" horiz-adv-x="1120" d="M68 280.5q0 135.5 106.5 221.5t290.5 86h217v26q0 63 -50 100.5t-147 37.5q-129 0 -321 -50v232q205 49 321 49q215 0 343 -97.5t128 -271.5v-340q0 -37 15.5 -53t52.5 -16q39 0 96 20v-225q-80 -27 -164 -27q-147 0 -213 78q-135 -78 -278 -78q-184 0 -290.5 86 t-106.5 221.5zM188 1092l179 409h301l176 -409h-226l-102 254l-102 -254h-226zM342 280.5q0 -102.5 123 -102.5q117 0 217 60v145h-217q-123 0 -123 -102.5z" />
<glyph unicode="&#xe3;" horiz-adv-x="1120" d="M68 280.5q0 135.5 106.5 221.5t290.5 86h217v26q0 63 -50 100.5t-147 37.5q-129 0 -321 -50v232q205 49 321 49q215 0 343 -97.5t128 -271.5v-340q0 -37 15.5 -53t52.5 -16q39 0 96 20v-225q-80 -27 -164 -27q-147 0 -213 78q-135 -78 -278 -78q-184 0 -290.5 86 t-106.5 221.5zM160 1092v34q0 125 68.5 196t191.5 71q111 0 190 -80q33 -29 56 -29q16 0 28.5 14.5t12.5 32.5v35h219v-35q0 -125 -69 -195.5t-191 -70.5q-111 0 -191 80q-33 29 -55 29q-16 0 -28.5 -14.5t-12.5 -33.5v-34h-219zM342 280.5q0 -102.5 123 -102.5 q117 0 217 60v145h-217q-123 0 -123 -102.5z" />
<glyph unicode="&#xe4;" horiz-adv-x="1120" d="M68 280.5q0 135.5 106.5 221.5t290.5 86h217v26q0 63 -50 100.5t-147 37.5q-129 0 -321 -50v232q205 49 321 49q215 0 343 -97.5t128 -271.5v-340q0 -37 15.5 -53t52.5 -16q39 0 96 20v-225q-80 -27 -164 -27q-147 0 -213 78q-135 -78 -278 -78q-184 0 -290.5 86 t-106.5 221.5zM244 1296q0 55 40 95.5t97 40.5t97 -40t40 -96q0 -57 -40 -97t-97 -40t-97 40t-40 97zM342 280.5q0 -102.5 123 -102.5q117 0 217 60v145h-217q-123 0 -123 -102.5zM586 1296q0 55 40 95.5t97 40.5q55 0 95 -40t40 -96q0 -57 -40 -97t-95 -40q-57 0 -97 40 t-40 97z" />
<glyph unicode="&#xe5;" horiz-adv-x="1120" d="M68 280.5q0 135.5 106.5 221.5t290.5 86h217v26q0 63 -50 100.5t-147 37.5q-129 0 -321 -50v232q205 49 321 49q215 0 343 -97.5t128 -271.5v-340q0 -37 15.5 -53t52.5 -16q39 0 96 20v-225q-80 -27 -164 -27q-147 0 -213 78q-135 -78 -278 -78q-184 0 -290.5 86 t-106.5 221.5zM305 1275.5q0 104.5 74 179.5t178.5 75t178 -75t73.5 -179.5t-73.5 -178t-178 -73.5t-178.5 73.5t-74 178zM342 280.5q0 -102.5 123 -102.5q117 0 217 60v145h-217q-123 0 -123 -102.5zM475 1276q0 -35 24.5 -58.5t57.5 -23.5t57.5 23.5t24.5 58.5t-24.5 58.5 t-57.5 23.5t-57.5 -23.5t-24.5 -58.5z" />
<glyph unicode="&#xe6;" horiz-adv-x="1669" d="M68 280.5q0 135.5 106.5 221.5t290.5 86h217v26q0 63 -50 100.5t-147 37.5q-129 0 -321 -50v232q205 49 321 49q236 0 357 -125q119 125 315 125q211 0 328 -137t117 -369q0 -47 -7 -94h-639q35 -178 277 -178q129 0 287 51v-231q-139 -51 -287 -52q-244 0 -389 117 q-188 -117 -379 -117q-184 0 -290.5 86t-106.5 221.5zM342 280.5q0 -102.5 123 -102.5t252 78q-20 49 -35 127h-217q-123 0 -123 -102.5zM961 600h372q-31 168 -188 168q-74 0 -124 -45t-60 -123z" />
<glyph unicode="&#xe7;" horiz-adv-x="942" d="M68 477q0 233 140 369.5t392 136.5q127 0 260 -43v-233q-131 45 -260 45q-246 0 -246 -275q0 -272 246 -272q125 0 260 43v-232q-78 -25 -166 -36l-168 -390h-245l172 398q-184 37 -284.5 165.5t-100.5 323.5z" />
<glyph unicode="&#xe8;" horiz-adv-x="1064" d="M68 477q0 229 128 367.5t343 138.5q217 0 337.5 -137t120.5 -369q0 -47 -6 -94h-641q35 -178 279 -178q129 0 286 51v-231q-143 -51 -286 -52q-264 0 -412.5 134t-148.5 370zM231 1501h246l178 -409h-245zM354 600h373q-14 84 -63.5 126t-124.5 42q-72 0 -122.5 -45 t-62.5 -123z" />
<glyph unicode="&#xe9;" horiz-adv-x="1064" d="M68 477q0 229 128 367.5t343 138.5q217 0 337.5 -137t120.5 -369q0 -47 -6 -94h-641q35 -178 279 -178q129 0 286 51v-231q-143 -51 -286 -52q-264 0 -412.5 134t-148.5 370zM354 600h373q-14 84 -63.5 126t-124.5 42q-72 0 -122.5 -45t-62.5 -123zM406 1092l176 409h245 l-176 -409h-245z" />
<glyph unicode="&#xea;" horiz-adv-x="1064" d="M68 477q0 229 128 367.5t343 138.5q217 0 337.5 -137t120.5 -369q0 -47 -6 -94h-641q35 -178 279 -178q129 0 286 51v-231q-143 -51 -286 -52q-264 0 -412.5 134t-148.5 370zM201 1092l178 409h301l176 -409h-225l-103 254l-102 -254h-225zM354 600h373q-14 84 -63.5 126 t-124.5 42q-72 0 -122.5 -45t-62.5 -123z" />
<glyph unicode="&#xeb;" horiz-adv-x="1064" d="M68 477q0 229 128 367.5t343 138.5q217 0 337.5 -137t120.5 -369q0 -47 -6 -94h-641q35 -178 279 -178q129 0 286 51v-231q-143 -51 -286 -52q-264 0 -412.5 134t-148.5 370zM231 1296q0 55 40 95.5t97.5 40.5t97.5 -40t40 -96q0 -57 -40 -97t-97.5 -40t-97.5 40t-40 97z M354 600h373q-14 84 -63.5 126t-124.5 42q-72 0 -122.5 -45t-62.5 -123zM573 1296q0 55 40 95.5t98 40.5q55 0 95 -40t40 -96q0 -57 -40 -97t-95 -40q-57 0 -97.5 40t-40.5 97z" />
<glyph unicode="&#xec;" horiz-adv-x="546" d="M-14 1501h245l179 -409h-246zM137 0v956h273v-956h-273z" />
<glyph unicode="&#xed;" horiz-adv-x="546" d="M137 0v956h273v-956h-273zM137 1092l176 409h246l-176 -409h-246z" />
<glyph unicode="&#xee;" horiz-adv-x="546" d="M-55 1092l178 409h301l176 -409h-225l-103 254l-102 -254h-225zM137 0v956h273v-956h-273z" />
<glyph unicode="&#xef;" horiz-adv-x="546" d="M-35 1296q0 55 40 95.5t97.5 40.5t97.5 -40t40 -96q0 -57 -40 -97t-97.5 -40t-97.5 40t-40 97zM137 0v956h273v-956h-273zM307 1296q0 55 40 95.5t97 40.5q55 0 95.5 -40t40.5 -96q0 -57 -40 -97t-96 -40q-57 0 -97 40t-40 97z" />
<glyph unicode="&#xf0;" horiz-adv-x="1120" d="M68 477.5q0 227.5 121.5 366.5t334.5 139q96 0 183 -43q-27 72 -86 166h-334v219h159q-57 61 -180 176h322q88 -88 157 -176h306v-219h-160q160 -297 160 -629q0 -227 -131.5 -365.5t-360.5 -138.5t-360 138.5t-131 366zM354 477q0 -133 53.5 -202.5t151.5 -69.5 t151.5 69.5t53.5 202.5q0 135 -53.5 205t-151.5 70t-151.5 -71t-53.5 -204z" />
<glyph unicode="&#xf1;" horiz-adv-x="1161" d="M164 0v922q236 61 436 61q197 0 317.5 -100.5t120.5 -268.5v-614h-274v614q0 63 -44 100.5t-120 37.5q-86 0 -164 -21v-731h-272zM184 1092v34q0 125 69 196t191 71q111 0 191 -80q29 -29 55 -29q16 0 28.5 14.5t12.5 32.5v35h217v-35q0 -125 -67.5 -195.5t-190.5 -70.5 q-113 0 -192 80q-29 29 -54 29q-16 0 -28.5 -14.5t-12.5 -33.5v-34h-219z" />
<glyph unicode="&#xf2;" horiz-adv-x="1120" d="M68 477.5q0 227.5 131 366.5t360 139t360.5 -139t131.5 -366.5t-131.5 -366t-360.5 -138.5t-360 138.5t-131 366zM256 1501h246l178 -409h-246zM354 477q0 -133 53.5 -202.5t151.5 -69.5t151.5 69.5t53.5 202.5q0 135 -53.5 205t-151.5 70t-151.5 -71t-53.5 -204z" />
<glyph unicode="&#xf3;" horiz-adv-x="1120" d="M68 477.5q0 227.5 131 366.5t360 139t360.5 -139t131.5 -366.5t-131.5 -366t-360.5 -138.5t-360 138.5t-131 366zM354 477q0 -133 53.5 -202.5t151.5 -69.5t151.5 69.5t53.5 202.5q0 135 -53.5 205t-151.5 70t-151.5 -71t-53.5 -204zM434 1092l176 409h246l-176 -409 h-246z" />
<glyph unicode="&#xf4;" horiz-adv-x="1120" d="M68 477.5q0 227.5 131 366.5t360 139t360.5 -139t131.5 -366.5t-131.5 -366t-360.5 -138.5t-360 138.5t-131 366zM221 1092l178 409h301l177 -409h-226l-102 254l-103 -254h-225zM354 477q0 -133 53.5 -202.5t151.5 -69.5t151.5 69.5t53.5 202.5q0 135 -53.5 205 t-151.5 70t-151.5 -71t-53.5 -204z" />
<glyph unicode="&#xf5;" horiz-adv-x="1120" d="M68 477.5q0 227.5 131 366.5t360 139t360.5 -139t131.5 -366.5t-131.5 -366t-360.5 -138.5t-360 138.5t-131 366zM180 1092v34q0 125 68.5 196t191.5 71q111 0 191 -80q33 -29 55 -29q16 0 28.5 14.5t12.5 32.5v35h219v-35q0 -125 -68.5 -195.5t-191.5 -70.5 q-111 0 -190 80q-33 29 -56 29q-16 0 -28.5 -14.5t-12.5 -33.5v-34h-219zM354 477q0 -133 53.5 -202.5t151.5 -69.5t151.5 69.5t53.5 202.5q0 135 -53.5 205t-151.5 70t-151.5 -71t-53.5 -204z" />
<glyph unicode="&#xf6;" horiz-adv-x="1120" d="M68 477.5q0 227.5 131 366.5t360 139t360.5 -139t131.5 -366.5t-131.5 -366t-360.5 -138.5t-360 138.5t-131 366zM248 1296q0 55 40 95.5t97 40.5t97 -40t40 -96q0 -57 -40 -97t-97 -40t-97 40t-40 97zM354 477q0 -133 53.5 -202.5t151.5 -69.5t151.5 69.5t53.5 202.5 q0 135 -53.5 205t-151.5 70t-151.5 -71t-53.5 -204zM590 1296q0 55 40 95.5t97 40.5q55 0 95 -40t40 -96q0 -57 -40 -97t-95 -40q-57 0 -97 40t-40 97z" />
<glyph unicode="&#xf7;" d="M109 436v219h765v-219h-765zM334 240q0 63 46 109t111.5 46t111.5 -46t46 -109q0 -66 -46 -112t-111.5 -46t-111.5 46t-46 112zM334 854q0 63 46 109.5t111.5 46.5t111.5 -46t46 -110q0 -66 -46 -112t-111.5 -46t-111.5 46t-46 112z" />
<glyph unicode="&#xf8;" horiz-adv-x="1120" d="M68 477.5q0 227.5 131 366.5t360 139t360.5 -139t131.5 -366.5t-131.5 -366t-360.5 -138.5t-360 138.5t-131 366zM330 477q0 -113 37 -182l235 471q-25 4 -43 4q-111 0 -170 -75t-59 -218zM516 188q14 -2 43 -2q111 0 171.5 75t60.5 216q0 109 -37 182z" />
<glyph unicode="&#xf9;" horiz-adv-x="1161" d="M123 342v614h272v-614q0 -63 44 -100t120 -37q86 0 164 33v718h274v-682q0 -37 15.5 -53t52.5 -16q39 0 96 20v-225q-80 -27 -164 -27q-129 0 -196 60q-119 -59 -242 -60q-197 0 -316.5 100.5t-119.5 268.5zM258 1501h246l178 -409h-246z" />
<glyph unicode="&#xfa;" horiz-adv-x="1161" d="M123 342v614h272v-614q0 -63 44 -100t120 -37q86 0 164 33v718h274v-682q0 -37 15.5 -53t52.5 -16q39 0 96 20v-225q-80 -27 -164 -27q-129 0 -196 60q-119 -59 -242 -60q-197 0 -316.5 100.5t-119.5 268.5zM422 1092l176 409h246l-176 -409h-246z" />
<glyph unicode="&#xfb;" horiz-adv-x="1161" d="M123 342v614h272v-614q0 -63 44 -100t120 -37q86 0 164 33v718h274v-682q0 -37 15.5 -53t52.5 -16q39 0 96 20v-225q-80 -27 -164 -27q-129 0 -196 60q-119 -59 -242 -60q-197 0 -316.5 100.5t-119.5 268.5zM221 1092l178 409h301l177 -409h-226l-102 254l-103 -254h-225 z" />
<glyph unicode="&#xfc;" horiz-adv-x="1161" d="M123 342v614h272v-614q0 -63 44 -100t120 -37q86 0 164 33v718h274v-682q0 -37 15.5 -53t52.5 -16q39 0 96 20v-225q-80 -27 -164 -27q-129 0 -196 60q-119 -59 -242 -60q-197 0 -316.5 100.5t-119.5 268.5zM254 1296q0 55 40 95.5t97.5 40.5t97 -40t39.5 -96 q0 -57 -39.5 -97t-97 -40t-97.5 40t-40 97zM596 1296q0 55 40 95.5t97 40.5q55 0 95 -40t40 -96q0 -57 -40 -97t-95 -40q-57 0 -97 40t-40 97z" />
<glyph unicode="&#xfd;" horiz-adv-x="1024" d="M0 956h301l211 -585l211 585h301l-625 -1503h-284l254 610zM381 1092l176 409h246l-176 -409h-246z" />
<glyph unicode="&#xfe;" horiz-adv-x="1132" d="M137 -547v2048h273v-545q92 27 163 27q229 0 360.5 -139t131.5 -366.5t-131 -366t-361 -138.5q-72 0 -163 27v-547h-273zM410 223q84 -18 163 -18q98 0 151.5 69.5t53.5 202.5q0 135 -53 205t-152 70q-86 0 -163 -21v-508z" />
<glyph unicode="&#xff;" horiz-adv-x="1024" d="M0 956h301l211 -585l211 585h301l-625 -1503h-284l254 610zM201 1296q0 55 40 95.5t97 40.5t97 -40t40 -96q0 -57 -40 -97t-97 -40t-97 40t-40 97zM543 1296q0 55 40 95.5t97 40.5q55 0 95 -40t40 -96q0 -57 -40 -97t-95 -40q-57 0 -97 40t-40 97z" />
<glyph unicode="&#x152;" horiz-adv-x="1869" d="M55 614.5q0 286.5 166 463.5t455 177q117 0 205 -26h880v-232h-565q74 -117 94 -266h471v-233h-471q-20 -150 -94 -267h565v-231h-880q-88 -27 -205 -27q-289 0 -455 177.5t-166 464zM354 614.5q0 -395.5 321.5 -395.5t321.5 395.5t-321.5 395.5t-321.5 -395.5z" />
<glyph unicode="&#x153;" horiz-adv-x="1761" d="M68 477q0 227 128 366.5t351 139.5q131 0 216 -39t144 -123q106 162 340 162q211 0 329 -137t118 -369q0 -47 -6 -94h-641q35 -178 278 -178q129 0 287 51v-231q-143 -51 -279 -52q-289 0 -426 160q-98 -160 -360 -160q-223 0 -351 139.5t-128 364.5zM354 477 q0 -133 53.5 -202.5t151.5 -69.5t151.5 69.5t53.5 202.5q0 135 -53.5 205t-151.5 70t-151.5 -71t-53.5 -204zM1051 600h372q-14 84 -63 126t-125 42q-72 0 -122 -45t-62 -123z" />
<glyph unicode="&#x178;" horiz-adv-x="1032" d="M-109 1229h332l293 -410l293 410h332l-488 -658v-571h-274v571zM207 1434q0 55 40 95t97 40t97 -40t40 -95q0 -57 -40 -97.5t-97 -40.5t-97 40.5t-40 97.5zM549 1434q0 55 40 95t97 40q55 0 95 -40t40 -95q0 -57 -40 -97.5t-95 -40.5q-57 0 -97 40.5t-40 97.5z" />
<glyph unicode="&#x2c6;" horiz-adv-x="546" d="M-55 1092l178 409h301l176 -409h-225l-103 254l-102 -254h-225z" />
<glyph unicode="&#x2dc;" d="M109 1092v34q0 125 68.5 196t191.5 71q111 0 190 -80q33 -29 55 -29q16 0 28.5 14.5t12.5 32.5v35h219v-35q0 -125 -68.5 -195.5t-191.5 -70.5q-111 0 -190 80q-33 29 -55 29q-16 0 -28.5 -14.5t-12.5 -33.5v-34h-219z" />
<glyph unicode="&#x2013;" horiz-adv-x="1966" d="M109 369v219h1749v-219h-1749z" />
<glyph unicode="&#x2014;" horiz-adv-x="2949" d="M109 369v219h2732v-219h-2732z" />
<glyph unicode="&#x2018;" horiz-adv-x="628" d="M150 1229q0 68 48 116t115 48q70 0 117 -48.5t47 -115.5q0 -55 -32.5 -98.5t-86.5 -59.5q35 -152 134 -319h-191q-151 252 -151 477z" />
<glyph unicode="&#x2019;" horiz-adv-x="628" d="M137 752q100 170 131 319q-51 16 -84.5 59.5t-33.5 98.5q0 68 48 116t115 48q70 0 117 -48.5t47 -115.5q0 -227 -149 -477h-191z" />
<glyph unicode="&#x201a;" horiz-adv-x="628" d="M137 -342q100 170 131 322q-51 14 -84.5 58t-33.5 99q0 68 48 116t115 48q70 0 117 -48t47 -116q0 -227 -149 -479h-191z" />
<glyph unicode="&#x201c;" horiz-adv-x="1038" d="M150 1229q0 68 48 116t115 48q70 0 117 -48.5t47 -115.5q0 -55 -32.5 -98.5t-86.5 -59.5q35 -152 134 -319h-191q-151 252 -151 477zM559 1229q0 68 48 116t116 48q70 0 117 -48.5t47 -115.5q0 -55 -33 -98.5t-86 -59.5q35 -152 133 -319h-190q-152 252 -152 477z" />
<glyph unicode="&#x201d;" horiz-adv-x="1038" d="M137 752q100 170 131 319q-51 16 -84.5 59.5t-33.5 98.5q0 68 48 116t115 48q70 0 117 -48.5t47 -115.5q0 -227 -149 -477h-191zM547 752q100 170 131 319q-51 16 -85 59.5t-34 98.5q0 68 48 116t116 48q70 0 117 -48.5t47 -115.5q0 -227 -150 -477h-190z" />
<glyph unicode="&#x201e;" horiz-adv-x="1038" d="M137 -342q100 170 131 322q-51 14 -84.5 58t-33.5 99q0 68 48 116t115 48q70 0 117 -48t47 -116q0 -227 -149 -479h-191zM547 -342q100 170 131 322q-51 14 -85 58t-34 99q0 68 48 116t116 48q70 0 117 -48t47 -116q0 -227 -150 -479h-190z" />
<glyph unicode="&#x2022;" horiz-adv-x="860" d="M109 547q0 133 94 226t227 93t227.5 -93t94.5 -226t-94.5 -227.5t-227.5 -94.5t-227 94.5t-94 227.5z" />
<glyph unicode="&#x2026;" horiz-adv-x="1884" d="M150 137q0 68 48 116t115 48q70 0 117 -48t47 -116q0 -70 -47 -117t-117 -47q-68 0 -115.5 47t-47.5 117zM778 137q0 68 48 116t116 48t116 -48t48 -116q0 -70 -48 -117t-116 -47t-116 47t-48 117zM1407 137q0 68 47 116t117 48q68 0 116 -48t48 -116q0 -70 -48.5 -117 t-115.5 -47q-70 0 -117 47t-47 117z" />
<glyph unicode="&#x2039;" d="M147 477l412 479h311l-413 -479l413 -477h-311z" />
<glyph unicode="&#x203a;" d="M113 0l413 477l-413 479h311l412 -479l-412 -477h-311z" />
<glyph unicode="&#x20ac;" horiz-adv-x="1114" d="M55 614q0 295 176.5 468t499.5 173q164 0 328 -53v-246q-160 53 -328 54q-229 0 -317 -144h473v-211h-531q-2 -12 -2 -40.5t2 -41.5h531v-211h-473q88 -143 317 -143q168 0 328 53v-245q-164 -53 -328 -54q-324 0 -500 173t-176 468z" />
<glyph unicode="&#x2122;" horiz-adv-x="1310" d="M27 1083v146h512v-146h-166v-469h-178v469h-168zM553 614l59 615h164l129 -185l129 185h162l59 -615h-178l-26 363l-105 -133h-82l-104 133l-27 -363h-180z" />
<glyph unicode="&#xe000;" horiz-adv-x="955" d="M0 955h955v-955h-955v955z" />
<glyph unicode="&#xfb01;" horiz-adv-x="1366" d="M14 723v233h205v205q0 168 120 268.5t316 100.5q82 0 164 -29v-231q-68 27 -164 26q-76 0 -119.5 -36.5t-43.5 -98.5v-205h737v-956h-273v723h-464v-723h-273v723h-205zM942 1296q0 63 44 107.5t106 44.5q63 0 107 -44t44 -108q0 -61 -44 -105t-107 -44q-61 0 -105.5 44 t-44.5 105z" />
<glyph unicode="&#xfb02;" horiz-adv-x="1409" d="M14 723v233h205v136q0 205 130 321.5t403 116.5q238 0 493 -76v-1180q0 -37 16.5 -53t51.5 -16q43 0 96 20v-225q-80 -27 -164 -27q-272 0 -272 273v1022q-109 29 -221 28q-143 0 -201.5 -49t-58.5 -155v-136h327v-233h-327v-723h-273v723h-205z" />
<glyph unicode="&#xfb03;" horiz-adv-x="2267" d="M14 723v233h205v205q0 168 120 268.5t316 100.5q82 0 164 -29v-231q-68 27 -164 26q-76 0 -119.5 -36.5t-43.5 -98.5v-205h327v-233h-327v-723h-273v723h-205zM874 723v233h205v205q0 168 120 268.5t317 100.5q82 0 163 -29v-231q-68 27 -163 26q-76 0 -120 -36.5 t-44 -98.5v-205h327v-233h-327v-723h-273v723h-205zM1843 1296q0 63 44 107.5t106 44.5q63 0 107 -44t44 -108q0 -61 -44 -105t-107 -44q-61 0 -105.5 44t-44.5 105zM1858 0v956h272v-956h-272z" />
<glyph unicode="&#xfb04;" horiz-adv-x="2293" d="M14 723v233h205v205q0 168 120 268.5t316 100.5q82 0 164 -29v-231q-68 27 -164 26q-76 0 -119.5 -36.5t-43.5 -98.5v-205h327v-233h-327v-723h-273v723h-205zM874 723v233h205v205q0 168 120 268.5t317 100.5q82 0 163 -29v-231q-68 27 -163 26q-76 0 -120 -36.5 t-44 -98.5v-205h327v-233h-327v-723h-273v723h-205zM1858 246v1255h272v-1227q0 -37 16.5 -53t51.5 -16q43 0 96 20v-225q-80 -27 -164 -27q-272 1 -272 273z" />
<glyph horiz-adv-x="628" />
</font>
</defs>
</svg>
